<svg width="2575" height="453" viewBox="0 0 2575 453" fill="none" xmlns="http://www.w3.org/2000/svg">
<path d="M430.192 231V114.636H508.601V134.92H454.794V162.648H504.567V182.932H454.794V210.716H508.828V231H430.192ZM551.911 114.636V231H527.706V114.636H551.911ZM611.072 232.705C602.095 232.705 594.368 230.886 587.891 227.25C581.451 223.576 576.489 218.386 573.004 211.682C569.519 204.939 567.777 196.966 567.777 187.761C567.777 178.784 569.519 170.905 573.004 164.125C576.489 157.345 581.394 152.061 587.72 148.273C594.084 144.485 601.546 142.591 610.107 142.591C615.864 142.591 621.224 143.519 626.186 145.375C631.186 147.193 635.542 149.939 639.254 153.614C643.004 157.288 645.921 161.909 648.004 167.477C650.088 173.008 651.129 179.485 651.129 186.909V193.557H577.436V178.557H628.345C628.345 175.072 627.588 171.985 626.072 169.295C624.557 166.606 622.455 164.504 619.766 162.989C617.114 161.436 614.027 160.659 610.504 160.659C606.83 160.659 603.572 161.511 600.732 163.216C597.929 164.883 595.732 167.136 594.141 169.977C592.55 172.78 591.735 175.905 591.697 179.352V193.614C591.697 197.932 592.493 201.663 594.084 204.807C595.713 207.951 598.004 210.375 600.959 212.08C603.913 213.784 607.417 214.636 611.47 214.636C614.16 214.636 616.622 214.258 618.857 213.5C621.091 212.742 623.004 211.606 624.595 210.091C626.186 208.576 627.398 206.72 628.232 204.523L650.618 206C649.482 211.379 647.152 216.076 643.629 220.091C640.144 224.068 635.637 227.174 630.107 229.409C624.614 231.606 618.269 232.705 611.072 232.705ZM706.357 232.705C697.417 232.705 689.728 230.811 683.288 227.023C676.887 223.197 671.963 217.894 668.516 211.114C665.107 204.333 663.402 196.53 663.402 187.705C663.402 178.765 665.125 170.924 668.572 164.182C672.057 157.402 677 152.117 683.402 148.33C689.804 144.504 697.417 142.591 706.243 142.591C713.857 142.591 720.523 143.973 726.243 146.739C731.963 149.504 736.489 153.386 739.822 158.386C743.156 163.386 744.993 169.258 745.334 176H722.493C721.849 171.644 720.144 168.14 717.379 165.489C714.652 162.799 711.072 161.455 706.641 161.455C702.891 161.455 699.614 162.477 696.811 164.523C694.046 166.53 691.887 169.466 690.334 173.33C688.781 177.193 688.004 181.871 688.004 187.364C688.004 192.932 688.762 197.667 690.277 201.568C691.83 205.47 694.008 208.443 696.811 210.489C699.614 212.534 702.891 213.557 706.641 213.557C709.406 213.557 711.887 212.989 714.084 211.852C716.319 210.716 718.156 209.068 719.595 206.909C721.072 204.712 722.038 202.08 722.493 199.011H745.334C744.955 205.678 743.137 211.549 739.879 216.625C736.66 221.663 732.209 225.602 726.527 228.443C720.845 231.284 714.122 232.705 706.357 232.705ZM807.251 143.727V161.909H754.695V143.727H807.251ZM766.626 122.818H790.831V204.182C790.831 206.417 791.172 208.159 791.854 209.409C792.536 210.621 793.482 211.473 794.695 211.966C795.945 212.458 797.384 212.705 799.013 212.705C800.149 212.705 801.286 212.61 802.422 212.42C803.558 212.193 804.429 212.023 805.036 211.909L808.842 229.92C807.63 230.299 805.926 230.735 803.729 231.227C801.532 231.758 798.861 232.08 795.717 232.193C789.884 232.42 784.77 231.644 780.376 229.864C776.02 228.083 772.63 225.318 770.206 221.568C767.782 217.818 766.589 213.083 766.626 207.364V122.818ZM823.018 231V143.727H846.484V158.955H847.393C848.984 153.538 851.655 149.447 855.405 146.682C859.155 143.879 863.473 142.477 868.359 142.477C869.571 142.477 870.878 142.553 872.28 142.705C873.681 142.856 874.912 143.064 875.973 143.33V164.807C874.837 164.466 873.265 164.163 871.257 163.898C869.25 163.633 867.412 163.5 865.746 163.5C862.185 163.5 859.003 164.277 856.2 165.83C853.435 167.345 851.238 169.466 849.609 172.193C848.018 174.92 847.223 178.064 847.223 181.625V231H823.018ZM923.857 232.705C915.031 232.705 907.398 230.83 900.959 227.08C894.557 223.292 889.614 218.027 886.129 211.284C882.644 204.504 880.902 196.644 880.902 187.705C880.902 178.689 882.644 170.811 886.129 164.068C889.614 157.288 894.557 152.023 900.959 148.273C907.398 144.485 915.031 142.591 923.857 142.591C932.682 142.591 940.296 144.485 946.697 148.273C953.137 152.023 958.099 157.288 961.584 164.068C965.069 170.811 966.811 178.689 966.811 187.705C966.811 196.644 965.069 204.504 961.584 211.284C958.099 218.027 953.137 223.292 946.697 227.08C940.296 230.83 932.682 232.705 923.857 232.705ZM923.97 213.955C927.985 213.955 931.338 212.818 934.027 210.545C936.716 208.235 938.743 205.091 940.107 201.114C941.508 197.136 942.209 192.61 942.209 187.534C942.209 182.458 941.508 177.932 940.107 173.955C938.743 169.977 936.716 166.833 934.027 164.523C931.338 162.212 927.985 161.057 923.97 161.057C919.917 161.057 916.508 162.212 913.743 164.523C911.016 166.833 908.951 169.977 907.55 173.955C906.186 177.932 905.504 182.458 905.504 187.534C905.504 192.61 906.186 197.136 907.55 201.114C908.951 205.091 911.016 208.235 913.743 210.545C916.508 212.818 919.917 213.955 923.97 213.955ZM1006.75 180.545V231H982.55V143.727H1005.62V159.125H1006.64C1008.57 154.049 1011.81 150.034 1016.36 147.08C1020.9 144.087 1026.41 142.591 1032.89 142.591C1038.95 142.591 1044.24 143.917 1048.74 146.568C1053.25 149.22 1056.75 153.008 1059.25 157.932C1061.75 162.818 1063 168.652 1063 175.432V231H1038.8V179.75C1038.84 174.409 1037.47 170.242 1034.71 167.25C1031.94 164.22 1028.14 162.705 1023.29 162.705C1020.03 162.705 1017.15 163.405 1014.65 164.807C1012.19 166.208 1010.26 168.254 1008.86 170.943C1007.49 173.595 1006.79 176.795 1006.75 180.545ZM1082.08 231V143.727H1106.29V231H1082.08ZM1094.24 132.477C1090.64 132.477 1087.55 131.284 1084.98 128.898C1082.44 126.473 1081.17 123.576 1081.17 120.205C1081.17 116.871 1082.44 114.011 1084.98 111.625C1087.55 109.201 1090.64 107.989 1094.24 107.989C1097.84 107.989 1100.91 109.201 1103.44 111.625C1106.02 114.011 1107.31 116.871 1107.31 120.205C1107.31 123.576 1106.02 126.473 1103.44 128.898C1100.91 131.284 1097.84 132.477 1094.24 132.477ZM1165.11 232.705C1156.17 232.705 1148.48 230.811 1142.04 227.023C1135.64 223.197 1130.71 217.894 1127.27 211.114C1123.86 204.333 1122.15 196.53 1122.15 187.705C1122.15 178.765 1123.88 170.924 1127.32 164.182C1130.81 157.402 1135.75 152.117 1142.15 148.33C1148.55 144.504 1156.17 142.591 1164.99 142.591C1172.61 142.591 1179.27 143.973 1184.99 146.739C1190.71 149.504 1195.24 153.386 1198.57 158.386C1201.91 163.386 1203.74 169.258 1204.08 176H1181.24C1180.6 171.644 1178.89 168.14 1176.13 165.489C1173.4 162.799 1169.82 161.455 1165.39 161.455C1161.64 161.455 1158.36 162.477 1155.56 164.523C1152.8 166.53 1150.64 169.466 1149.08 173.33C1147.53 177.193 1146.75 181.871 1146.75 187.364C1146.75 192.932 1147.51 197.667 1149.03 201.568C1150.58 205.47 1152.76 208.443 1155.56 210.489C1158.36 212.534 1161.64 213.557 1165.39 213.557C1168.16 213.557 1170.64 212.989 1172.83 211.852C1175.07 210.716 1176.91 209.068 1178.35 206.909C1179.82 204.712 1180.79 202.08 1181.24 199.011H1204.08C1203.71 205.678 1201.89 211.549 1198.63 216.625C1195.41 221.663 1190.96 225.602 1185.28 228.443C1179.6 231.284 1172.87 232.705 1165.11 232.705ZM1292.19 168.614L1270.04 169.977C1269.66 168.083 1268.84 166.379 1267.59 164.864C1266.34 163.311 1264.69 162.08 1262.65 161.17C1260.64 160.223 1258.24 159.75 1255.43 159.75C1251.68 159.75 1248.52 160.545 1245.94 162.136C1243.37 163.689 1242.08 165.773 1242.08 168.386C1242.08 170.47 1242.91 172.231 1244.58 173.67C1246.25 175.11 1249.11 176.265 1253.16 177.136L1268.96 180.318C1277.44 182.061 1283.77 184.864 1287.93 188.727C1292.1 192.591 1294.18 197.667 1294.18 203.955C1294.18 209.674 1292.5 214.693 1289.13 219.011C1285.79 223.33 1281.21 226.701 1275.38 229.125C1269.58 231.511 1262.9 232.705 1255.32 232.705C1243.77 232.705 1234.56 230.299 1227.71 225.489C1220.89 220.64 1216.89 214.049 1215.72 205.716L1239.52 204.466C1240.24 207.989 1241.99 210.678 1244.75 212.534C1247.52 214.352 1251.06 215.261 1255.38 215.261C1259.62 215.261 1263.03 214.447 1265.6 212.818C1268.22 211.152 1269.54 209.011 1269.58 206.398C1269.54 204.201 1268.62 202.402 1266.8 201C1264.98 199.561 1262.18 198.462 1258.39 197.705L1243.27 194.693C1234.75 192.989 1228.41 190.034 1224.24 185.83C1220.11 181.625 1218.05 176.265 1218.05 169.75C1218.05 164.144 1219.56 159.314 1222.59 155.261C1225.66 151.208 1229.96 148.083 1235.49 145.886C1241.06 143.689 1247.57 142.591 1255.04 142.591C1266.06 142.591 1274.73 144.92 1281.06 149.58C1287.42 154.239 1291.13 160.583 1292.19 168.614ZM1382.14 232.705C1374.11 232.705 1367.18 231.265 1361.34 228.386C1355.51 225.508 1351.02 221.606 1347.88 216.682C1344.77 211.72 1343.22 206.189 1343.22 200.091C1343.22 195.545 1344.13 191.511 1345.94 187.989C1347.76 184.466 1350.3 181.227 1353.56 178.273C1356.82 175.28 1360.6 172.307 1364.92 169.352L1387.48 154.523C1390.4 152.667 1392.54 150.716 1393.9 148.67C1395.26 146.587 1395.94 144.333 1395.94 141.909C1395.94 139.598 1395.02 137.458 1393.16 135.489C1391.3 133.519 1388.67 132.553 1385.26 132.591C1382.99 132.591 1381.02 133.102 1379.35 134.125C1377.69 135.11 1376.38 136.417 1375.43 138.045C1374.52 139.636 1374.07 141.417 1374.07 143.386C1374.07 145.811 1374.75 148.273 1376.12 150.773C1377.48 153.273 1379.3 155.924 1381.57 158.727C1383.84 161.492 1386.32 164.485 1389.01 167.705L1444.18 231H1418.96L1372.93 179.75C1369.9 176.303 1366.87 172.705 1363.84 168.955C1360.85 165.167 1358.35 161.152 1356.34 156.909C1354.33 152.629 1353.33 147.989 1353.33 142.989C1353.33 137.345 1354.64 132.269 1357.25 127.761C1359.9 123.254 1363.62 119.693 1368.39 117.08C1373.16 114.428 1378.73 113.102 1385.09 113.102C1391.3 113.102 1396.66 114.371 1401.17 116.909C1405.72 119.409 1409.2 122.742 1411.63 126.909C1414.09 131.038 1415.32 135.583 1415.32 140.545C1415.32 146.038 1413.96 151.019 1411.23 155.489C1408.54 159.92 1404.75 163.898 1399.87 167.42L1376.12 184.523C1372.9 186.871 1370.51 189.277 1368.96 191.739C1367.44 194.163 1366.68 196.492 1366.68 198.727C1366.68 201.492 1367.37 203.973 1368.73 206.17C1370.09 208.367 1372.02 210.11 1374.52 211.398C1377.02 212.648 1379.96 213.273 1383.33 213.273C1387.42 213.273 1391.46 212.345 1395.43 210.489C1399.45 208.595 1403.08 205.924 1406.34 202.477C1409.64 198.992 1412.27 194.864 1414.24 190.091C1416.21 185.318 1417.19 180.034 1417.19 174.239H1437.25C1437.25 181.36 1436.47 187.78 1434.92 193.5C1433.37 199.182 1431.21 204.144 1428.44 208.386C1425.68 212.591 1422.52 216.038 1418.96 218.727C1417.82 219.447 1416.72 220.129 1415.66 220.773C1414.6 221.417 1413.5 222.098 1412.37 222.818C1408.05 226.303 1403.22 228.822 1397.88 230.375C1392.57 231.928 1387.33 232.705 1382.14 232.705ZM1491.75 231V114.636H1537.66C1546.45 114.636 1553.95 116.208 1560.16 119.352C1566.41 122.458 1571.17 126.871 1574.42 132.591C1577.72 138.273 1579.37 144.958 1579.37 152.648C1579.37 160.375 1577.7 167.023 1574.37 172.591C1571.03 178.121 1566.21 182.364 1559.88 185.318C1553.59 188.273 1545.98 189.75 1537.04 189.75H1506.3V169.977H1533.06C1537.76 169.977 1541.66 169.333 1544.77 168.045C1547.87 166.758 1550.18 164.826 1551.7 162.25C1553.25 159.674 1554.03 156.473 1554.03 152.648C1554.03 148.784 1553.25 145.527 1551.7 142.875C1550.18 140.223 1547.85 138.216 1544.71 136.852C1541.6 135.451 1537.68 134.75 1532.95 134.75H1516.36V231H1491.75ZM1554.6 178.045L1583.52 231H1556.36L1528.06 178.045H1554.6ZM1634.33 232.705C1625.5 232.705 1617.87 230.83 1611.43 227.08C1605.03 223.292 1600.08 218.027 1596.6 211.284C1593.11 204.504 1591.37 196.644 1591.37 187.705C1591.37 178.689 1593.11 170.811 1596.6 164.068C1600.08 157.288 1605.03 152.023 1611.43 148.273C1617.87 144.485 1625.5 142.591 1634.33 142.591C1643.15 142.591 1650.76 144.485 1657.17 148.273C1663.61 152.023 1668.57 157.288 1672.05 164.068C1675.54 170.811 1677.28 178.689 1677.28 187.705C1677.28 196.644 1675.54 204.504 1672.05 211.284C1668.57 218.027 1663.61 223.292 1657.17 227.08C1650.76 230.83 1643.15 232.705 1634.33 232.705ZM1634.44 213.955C1638.45 213.955 1641.81 212.818 1644.5 210.545C1647.19 208.235 1649.21 205.091 1650.58 201.114C1651.98 197.136 1652.68 192.61 1652.68 187.534C1652.68 182.458 1651.98 177.932 1650.58 173.955C1649.21 169.977 1647.19 166.833 1644.5 164.523C1641.81 162.212 1638.45 161.057 1634.44 161.057C1630.39 161.057 1626.98 162.212 1624.21 164.523C1621.48 166.833 1619.42 169.977 1618.02 173.955C1616.65 177.932 1615.97 182.458 1615.97 187.534C1615.97 192.61 1616.65 197.136 1618.02 201.114C1619.42 205.091 1621.48 208.235 1624.21 210.545C1626.98 212.818 1630.39 213.955 1634.44 213.955ZM1693.47 231V114.636H1717.68V158.386H1718.42C1719.48 156.038 1721.01 153.652 1723.02 151.227C1725.06 148.765 1727.72 146.72 1730.97 145.091C1734.27 143.424 1738.36 142.591 1743.25 142.591C1749.61 142.591 1755.48 144.258 1760.86 147.591C1766.24 150.886 1770.54 155.867 1773.76 162.534C1776.98 169.163 1778.59 177.477 1778.59 187.477C1778.59 197.212 1777.01 205.432 1773.87 212.136C1770.76 218.803 1766.52 223.86 1761.14 227.307C1755.8 230.716 1749.82 232.42 1743.19 232.42C1738.49 232.42 1734.5 231.644 1731.2 230.091C1727.94 228.538 1725.27 226.587 1723.19 224.239C1721.11 221.852 1719.51 219.447 1718.42 217.023H1717.34V231H1693.47ZM1717.17 187.364C1717.17 192.553 1717.89 197.08 1719.33 200.943C1720.76 204.807 1722.85 207.818 1725.58 209.977C1728.3 212.098 1731.62 213.159 1735.52 213.159C1739.46 213.159 1742.79 212.08 1745.52 209.92C1748.25 207.723 1750.31 204.693 1751.71 200.83C1753.15 196.928 1753.87 192.439 1753.87 187.364C1753.87 182.326 1753.17 177.894 1751.77 174.068C1750.37 170.242 1748.3 167.25 1745.58 165.091C1742.85 162.932 1739.5 161.852 1735.52 161.852C1731.58 161.852 1728.25 162.894 1725.52 164.977C1722.83 167.061 1720.76 170.015 1719.33 173.841C1717.89 177.667 1717.17 182.174 1717.17 187.364ZM1834.17 232.705C1825.34 232.705 1817.71 230.83 1811.27 227.08C1804.87 223.292 1799.93 218.027 1796.44 211.284C1792.96 204.504 1791.21 196.644 1791.21 187.705C1791.21 178.689 1792.96 170.811 1796.44 164.068C1799.93 157.288 1804.87 152.023 1811.27 148.273C1817.71 144.485 1825.34 142.591 1834.17 142.591C1842.99 142.591 1850.61 144.485 1857.01 148.273C1863.45 152.023 1868.41 157.288 1871.9 164.068C1875.38 170.811 1877.12 178.689 1877.12 187.705C1877.12 196.644 1875.38 204.504 1871.9 211.284C1868.41 218.027 1863.45 223.292 1857.01 227.08C1850.61 230.83 1842.99 232.705 1834.17 232.705ZM1834.28 213.955C1838.3 213.955 1841.65 212.818 1844.34 210.545C1847.03 208.235 1849.06 205.091 1850.42 201.114C1851.82 197.136 1852.52 192.61 1852.52 187.534C1852.52 182.458 1851.82 177.932 1850.42 173.955C1849.06 169.977 1847.03 166.833 1844.34 164.523C1841.65 162.212 1838.3 161.057 1834.28 161.057C1830.23 161.057 1826.82 162.212 1824.06 164.523C1821.33 166.833 1819.26 169.977 1817.86 173.955C1816.5 177.932 1815.82 182.458 1815.82 187.534C1815.82 192.61 1816.5 197.136 1817.86 201.114C1819.26 205.091 1821.33 208.235 1824.06 210.545C1826.82 212.818 1830.23 213.955 1834.28 213.955ZM1939.28 143.727V161.909H1886.73V143.727H1939.28ZM1898.66 122.818H1922.86V204.182C1922.86 206.417 1923.2 208.159 1923.88 209.409C1924.57 210.621 1925.51 211.473 1926.73 211.966C1927.98 212.458 1929.42 212.705 1931.04 212.705C1932.18 212.705 1933.32 212.61 1934.45 212.42C1935.59 212.193 1936.46 212.023 1937.07 211.909L1940.87 229.92C1939.66 230.299 1937.96 230.735 1935.76 231.227C1933.56 231.758 1930.89 232.08 1927.75 232.193C1921.92 232.42 1916.8 231.644 1912.41 229.864C1908.05 228.083 1904.66 225.318 1902.24 221.568C1899.81 217.818 1898.62 213.083 1898.66 207.364V122.818ZM1955.05 231V143.727H1979.25V231H1955.05ZM1967.21 132.477C1963.61 132.477 1960.52 131.284 1957.95 128.898C1955.41 126.473 1954.14 123.576 1954.14 120.205C1954.14 116.871 1955.41 114.011 1957.95 111.625C1960.52 109.201 1963.61 107.989 1967.21 107.989C1970.81 107.989 1973.88 109.201 1976.41 111.625C1978.99 114.011 1980.28 116.871 1980.28 120.205C1980.28 123.576 1978.99 126.473 1976.41 128.898C1973.88 131.284 1970.81 132.477 1967.21 132.477ZM2038.08 232.705C2029.14 232.705 2021.45 230.811 2015.01 227.023C2008.61 223.197 2003.68 217.894 2000.23 211.114C1996.83 204.333 1995.12 196.53 1995.12 187.705C1995.12 178.765 1996.84 170.924 2000.29 164.182C2003.78 157.402 2008.72 152.117 2015.12 148.33C2021.52 144.504 2029.14 142.591 2037.96 142.591C2045.58 142.591 2052.24 143.973 2057.96 146.739C2063.68 149.504 2068.21 153.386 2071.54 158.386C2074.87 163.386 2076.71 169.258 2077.05 176H2054.21C2053.57 171.644 2051.86 168.14 2049.1 165.489C2046.37 162.799 2042.79 161.455 2038.36 161.455C2034.61 161.455 2031.33 162.477 2028.53 164.523C2025.76 166.53 2023.61 169.466 2022.05 173.33C2020.5 177.193 2019.72 181.871 2019.72 187.364C2019.72 192.932 2020.48 197.667 2022 201.568C2023.55 205.47 2025.73 208.443 2028.53 210.489C2031.33 212.534 2034.61 213.557 2038.36 213.557C2041.12 213.557 2043.61 212.989 2045.8 211.852C2048.04 210.716 2049.87 209.068 2051.31 206.909C2052.79 204.712 2053.76 202.08 2054.21 199.011H2077.05C2076.67 205.678 2074.86 211.549 2071.6 216.625C2068.38 221.663 2063.93 225.602 2058.25 228.443C2052.56 231.284 2045.84 232.705 2038.08 232.705ZM2165.16 168.614L2143 169.977C2142.63 168.083 2141.81 166.379 2140.56 164.864C2139.31 163.311 2137.66 162.08 2135.62 161.17C2133.61 160.223 2131.21 159.75 2128.4 159.75C2124.65 159.75 2121.49 160.545 2118.91 162.136C2116.34 163.689 2115.05 165.773 2115.05 168.386C2115.05 170.47 2115.88 172.231 2117.55 173.67C2119.22 175.11 2122.08 176.265 2126.13 177.136L2141.92 180.318C2150.41 182.061 2156.74 184.864 2160.9 188.727C2165.07 192.591 2167.15 197.667 2167.15 203.955C2167.15 209.674 2165.47 214.693 2162.1 219.011C2158.76 223.33 2154.18 226.701 2148.35 229.125C2142.55 231.511 2135.86 232.705 2128.29 232.705C2116.74 232.705 2107.53 230.299 2100.67 225.489C2093.86 220.64 2089.86 214.049 2088.69 205.716L2112.49 204.466C2113.21 207.989 2114.96 210.678 2117.72 212.534C2120.49 214.352 2124.03 215.261 2128.35 215.261C2132.59 215.261 2136 214.447 2138.57 212.818C2141.19 211.152 2142.51 209.011 2142.55 206.398C2142.51 204.201 2141.58 202.402 2139.77 201C2137.95 199.561 2135.14 198.462 2131.36 197.705L2116.24 194.693C2107.72 192.989 2101.38 190.034 2097.21 185.83C2093.08 181.625 2091.02 176.265 2091.02 169.75C2091.02 164.144 2092.53 159.314 2095.56 155.261C2098.63 151.208 2102.93 148.083 2108.46 145.886C2114.03 143.689 2120.54 142.591 2128 142.591C2139.03 142.591 2147.7 144.92 2154.03 149.58C2160.39 154.239 2164.1 160.583 2165.16 168.614ZM2322.55 155.375H2297.66C2297.21 152.155 2296.28 149.295 2294.88 146.795C2293.48 144.258 2291.68 142.098 2289.48 140.318C2287.28 138.538 2284.75 137.174 2281.87 136.227C2279.03 135.28 2275.94 134.807 2272.61 134.807C2266.58 134.807 2261.34 136.303 2256.87 139.295C2252.4 142.25 2248.93 146.568 2246.47 152.25C2244.01 157.894 2242.78 164.75 2242.78 172.818C2242.78 181.114 2244.01 188.083 2246.47 193.727C2248.97 199.371 2252.46 203.633 2256.92 206.511C2261.39 209.39 2266.56 210.83 2272.44 210.83C2275.73 210.83 2278.78 210.394 2281.58 209.523C2284.42 208.652 2286.94 207.383 2289.14 205.716C2291.34 204.011 2293.16 201.947 2294.6 199.523C2296.07 197.098 2297.1 194.333 2297.66 191.227L2322.55 191.341C2321.91 196.682 2320.3 201.833 2317.72 206.795C2315.18 211.72 2311.75 216.133 2307.44 220.034C2303.16 223.898 2298.04 226.966 2292.1 229.239C2286.19 231.473 2279.5 232.591 2272.04 232.591C2261.66 232.591 2252.38 230.242 2244.2 225.545C2236.05 220.848 2229.61 214.049 2224.88 205.148C2220.18 196.246 2217.83 185.47 2217.83 172.818C2217.83 160.129 2220.22 149.333 2224.99 140.432C2229.77 131.53 2236.24 124.75 2244.42 120.091C2252.61 115.394 2261.81 113.045 2272.04 113.045C2278.78 113.045 2285.03 113.992 2290.79 115.886C2296.58 117.78 2301.72 120.545 2306.19 124.182C2310.66 127.78 2314.29 132.193 2317.1 137.42C2319.94 142.648 2321.75 148.633 2322.55 155.375ZM2363.94 114.636V231H2339.74V114.636H2363.94ZM2439.3 193.841V143.727H2463.5V231H2440.26V215.148H2439.35C2437.38 220.261 2434.11 224.371 2429.52 227.477C2424.98 230.583 2419.43 232.136 2412.88 232.136C2407.04 232.136 2401.91 230.811 2397.48 228.159C2393.05 225.508 2389.58 221.739 2387.08 216.852C2384.62 211.966 2383.37 206.114 2383.33 199.295V143.727H2407.54V194.977C2407.57 200.129 2408.96 204.201 2411.68 207.193C2414.41 210.186 2418.07 211.682 2422.65 211.682C2425.57 211.682 2428.29 211.019 2430.83 209.693C2433.37 208.33 2435.41 206.322 2436.97 203.67C2438.56 201.019 2439.33 197.742 2439.3 193.841ZM2483.32 231V114.636H2507.52V158.386H2508.26C2509.32 156.038 2510.85 153.652 2512.86 151.227C2514.91 148.765 2517.56 146.72 2520.82 145.091C2524.11 143.424 2528.2 142.591 2533.09 142.591C2539.45 142.591 2545.32 144.258 2550.7 147.591C2556.08 150.886 2560.38 155.867 2563.6 162.534C2566.82 169.163 2568.43 177.477 2568.43 187.477C2568.43 197.212 2566.86 205.432 2563.71 212.136C2560.61 218.803 2556.37 223.86 2550.99 227.307C2545.65 230.716 2539.66 232.42 2533.03 232.42C2528.34 232.42 2524.34 231.644 2521.04 230.091C2517.79 228.538 2515.12 226.587 2513.03 224.239C2510.95 221.852 2509.36 219.447 2508.26 217.023H2507.18V231H2483.32ZM2507.01 187.364C2507.01 192.553 2507.73 197.08 2509.17 200.943C2510.61 204.807 2512.69 207.818 2515.42 209.977C2518.15 212.098 2521.46 213.159 2525.36 213.159C2529.3 213.159 2532.63 212.08 2535.36 209.92C2538.09 207.723 2540.15 204.693 2541.56 200.83C2542.99 196.928 2543.71 192.439 2543.71 187.364C2543.71 182.326 2543.01 177.894 2541.61 174.068C2540.21 170.242 2538.15 167.25 2535.42 165.091C2532.69 162.932 2529.34 161.852 2525.36 161.852C2521.42 161.852 2518.09 162.894 2515.36 164.977C2512.67 167.061 2510.61 170.015 2509.17 173.841C2507.73 177.667 2507.01 182.174 2507.01 187.364Z" fill="white"/>
<path d="M455.585 261.909V355H441.54V261.909H455.585ZM490.085 261.909V355H476.04V261.909H490.085ZM505.949 274V261.909H577.994V274H548.949V355H534.949V274H505.949ZM627.79 355V261.909H661.881C668.487 261.909 673.956 263 678.29 265.182C682.623 267.333 685.866 270.258 688.017 273.955C690.169 277.621 691.244 281.758 691.244 286.364C691.244 290.242 690.532 293.515 689.108 296.182C687.684 298.818 685.775 300.939 683.381 302.545C681.017 304.121 678.411 305.273 675.562 306V306.909C678.653 307.061 681.669 308.061 684.608 309.909C687.578 311.727 690.032 314.318 691.972 317.682C693.911 321.045 694.881 325.136 694.881 329.955C694.881 334.712 693.759 338.985 691.517 342.773C689.305 346.53 685.881 349.515 681.244 351.727C676.608 353.909 670.684 355 663.472 355H627.79ZM641.835 342.955H662.108C668.835 342.955 673.653 341.652 676.562 339.045C679.472 336.439 680.926 333.182 680.926 329.273C680.926 326.333 680.184 323.636 678.699 321.182C677.214 318.727 675.093 316.773 672.335 315.318C669.608 313.864 666.366 313.136 662.608 313.136H641.835V342.955ZM641.835 302.182H660.653C663.805 302.182 666.638 301.576 669.153 300.364C671.699 299.152 673.714 297.455 675.199 295.273C676.714 293.061 677.472 290.455 677.472 287.455C677.472 283.606 676.123 280.379 673.426 277.773C670.729 275.167 666.593 273.864 661.017 273.864H641.835V302.182ZM739.858 356.409C733.313 356.409 727.6 354.909 722.722 351.909C717.843 348.909 714.055 344.712 711.358 339.318C708.661 333.924 707.312 327.621 707.312 320.409C707.312 313.167 708.661 306.833 711.358 301.409C714.055 295.985 717.843 291.773 722.722 288.773C727.6 285.773 733.313 284.273 739.858 284.273C746.403 284.273 752.116 285.773 756.994 288.773C761.873 291.773 765.661 295.985 768.358 301.409C771.055 306.833 772.403 313.167 772.403 320.409C772.403 327.621 771.055 333.924 768.358 339.318C765.661 344.712 761.873 348.909 756.994 351.909C752.116 354.909 746.403 356.409 739.858 356.409ZM739.903 345C744.146 345 747.661 343.879 750.449 341.636C753.237 339.394 755.297 336.409 756.631 332.682C757.994 328.955 758.676 324.848 758.676 320.364C758.676 315.909 757.994 311.818 756.631 308.091C755.297 304.333 753.237 301.318 750.449 299.045C747.661 296.773 744.146 295.636 739.903 295.636C735.631 295.636 732.085 296.773 729.267 299.045C726.479 301.318 724.403 304.333 723.04 308.091C721.706 311.818 721.04 315.909 721.04 320.364C721.04 324.848 721.706 328.955 723.04 332.682C724.403 336.409 726.479 339.394 729.267 341.636C732.085 343.879 735.631 345 739.903 345ZM787.574 355V285.182H800.619V296.545H801.483C802.938 292.697 805.316 289.697 808.619 287.545C811.922 285.364 815.877 284.273 820.483 284.273C825.15 284.273 829.059 285.364 832.21 287.545C835.392 289.727 837.741 292.727 839.256 296.545H839.983C841.65 292.818 844.301 289.848 847.938 287.636C851.574 285.394 855.907 284.273 860.938 284.273C867.271 284.273 872.438 286.258 876.438 290.227C880.468 294.197 882.483 300.182 882.483 308.182V355H868.892V309.455C868.892 304.727 867.604 301.303 865.028 299.182C862.453 297.061 859.377 296 855.801 296C851.377 296 847.938 297.364 845.483 300.091C843.028 302.788 841.801 306.258 841.801 310.5V355H828.256V308.591C828.256 304.803 827.074 301.758 824.71 299.455C822.347 297.152 819.271 296 815.483 296C812.907 296 810.528 296.682 808.347 298.045C806.195 299.379 804.453 301.242 803.119 303.636C801.816 306.03 801.165 308.803 801.165 311.955V355H787.574ZM901.79 355V261.909H915.381V296.5H916.199C916.987 295.045 918.123 293.364 919.608 291.455C921.093 289.545 923.153 287.879 925.79 286.455C928.426 285 931.911 284.273 936.244 284.273C941.881 284.273 946.911 285.697 951.335 288.545C955.759 291.394 959.229 295.5 961.744 300.864C964.29 306.227 965.562 312.682 965.562 320.227C965.562 327.773 964.305 334.242 961.79 339.636C959.275 345 955.82 349.136 951.426 352.045C947.032 354.924 942.017 356.364 936.381 356.364C932.138 356.364 928.669 355.652 925.972 354.227C923.305 352.803 921.214 351.136 919.699 349.227C918.184 347.318 917.017 345.621 916.199 344.136H915.062V355H901.79ZM915.108 320.091C915.108 325 915.82 329.303 917.244 333C918.669 336.697 920.729 339.591 923.426 341.682C926.123 343.742 929.426 344.773 933.335 344.773C937.396 344.773 940.79 343.697 943.517 341.545C946.244 339.364 948.305 336.409 949.699 332.682C951.123 328.955 951.835 324.758 951.835 320.091C951.835 315.485 951.138 311.348 949.744 307.682C948.381 304.015 946.32 301.121 943.562 299C940.835 296.879 937.426 295.818 933.335 295.818C929.396 295.818 926.062 296.833 923.335 298.864C920.638 300.894 918.593 303.727 917.199 307.364C915.805 311 915.108 315.242 915.108 320.091ZM1001.14 356.545C996.718 356.545 992.718 355.727 989.142 354.091C985.566 352.424 982.733 350.015 980.642 346.864C978.581 343.712 977.551 339.848 977.551 335.273C977.551 331.333 978.309 328.091 979.824 325.545C981.339 323 983.384 320.985 985.96 319.5C988.536 318.015 991.415 316.894 994.597 316.136C997.778 315.379 1001.02 314.803 1004.32 314.409C1008.51 313.924 1011.9 313.53 1014.51 313.227C1017.11 312.894 1019.01 312.364 1020.19 311.636C1021.37 310.909 1021.96 309.727 1021.96 308.091V307.773C1021.96 303.803 1020.84 300.727 1018.6 298.545C1016.38 296.364 1013.08 295.273 1008.69 295.273C1004.11 295.273 1000.51 296.288 997.869 298.318C995.263 300.318 993.46 302.545 992.46 305L979.688 302.091C981.203 297.848 983.415 294.424 986.324 291.818C989.263 289.182 992.642 287.273 996.46 286.091C1000.28 284.879 1004.29 284.273 1008.51 284.273C1011.29 284.273 1014.25 284.606 1017.37 285.273C1020.52 285.909 1023.46 287.091 1026.19 288.818C1028.95 290.545 1031.2 293.015 1032.96 296.227C1034.72 299.409 1035.6 303.545 1035.6 308.636V355H1022.32V345.455H1021.78C1020.9 347.212 1019.58 348.939 1017.82 350.636C1016.07 352.333 1013.81 353.742 1011.05 354.864C1008.29 355.985 1004.99 356.545 1001.14 356.545ZM1004.1 345.636C1007.85 345.636 1011.07 344.894 1013.73 343.409C1016.43 341.924 1018.48 339.985 1019.87 337.591C1021.29 335.167 1022.01 332.576 1022.01 329.818V320.818C1021.52 321.303 1020.58 321.758 1019.19 322.182C1017.82 322.576 1016.26 322.924 1014.51 323.227C1012.75 323.5 1011.04 323.758 1009.37 324C1007.7 324.212 1006.31 324.394 1005.19 324.545C1002.55 324.879 1000.14 325.439 997.96 326.227C995.809 327.015 994.081 328.152 992.778 329.636C991.506 331.091 990.869 333.03 990.869 335.455C990.869 338.818 992.112 341.364 994.597 343.091C997.081 344.788 1000.25 345.636 1004.1 345.636ZM1059.79 381.182C1057.76 381.182 1055.91 381.015 1054.24 380.682C1052.58 380.379 1051.34 380.045 1050.52 379.682L1053.79 368.545C1056.27 369.212 1058.49 369.5 1060.43 369.409C1062.37 369.318 1064.08 368.591 1065.56 367.227C1067.08 365.864 1068.41 363.636 1069.56 360.545L1071.24 355.909L1045.7 285.182H1060.24L1077.93 339.364H1078.65L1096.34 285.182H1110.93L1082.15 364.318C1080.82 367.955 1079.12 371.03 1077.06 373.545C1075 376.091 1072.55 378 1069.7 379.273C1066.85 380.545 1063.55 381.182 1059.79 381.182Z" fill="#91C4FF" fill-opacity="0.8"/>
<mask id="mask0_4302_38" style="mask-type:alpha" maskUnits="userSpaceOnUse" x="87" y="104" width="242" height="243">
<path fill-rule="evenodd" clip-rule="evenodd" d="M208.14 315.995C258.176 315.995 298.74 275.431 298.74 225.393C298.74 175.356 258.176 134.793 208.14 134.793C158.103 134.793 117.54 175.356 117.54 225.393C117.54 275.431 158.103 315.995 208.14 315.995ZM208.14 346.194C274.857 346.194 328.939 292.11 328.939 225.393C328.939 158.678 274.857 104.593 208.14 104.593C141.424 104.593 87.3398 158.678 87.3398 225.393C87.3398 292.11 141.424 346.194 208.14 346.194Z" fill="white"/>
</mask>
<g mask="url(#mask0_4302_38)">
<path d="M20.8999 77.4136H208.14V360.567H20.8999V77.4136Z" fill="white"/>
</g>
<mask id="mask1_4302_38" style="mask-type:alpha" maskUnits="userSpaceOnUse" x="18" y="60" width="214" height="287">
<path d="M159.697 60.4001L231.01 101.573L89.4338 346.792L18.1196 305.617L159.697 60.4001Z" fill="#D9D9D9"/>
</mask>
<g mask="url(#mask1_4302_38)">
<path d="M208.138 104.593H229.279V134.793H208.138V104.593Z" fill="white"/>
</g>
<mask id="mask2_4302_38" style="mask-type:alpha" maskUnits="userSpaceOnUse" x="208" y="315" width="22" height="32">
<path d="M208.14 315.995H229.281V346.194H208.14V315.995Z" fill="#D9D9D9"/>
</mask>
<g mask="url(#mask2_4302_38)">
<path d="M114.52 291.834L177.29 255.594L260.339 399.44L197.571 435.68L114.52 291.834Z" fill="white"/>
</g>
<path fill-rule="evenodd" clip-rule="evenodd" d="M229.279 134.793H271.56V104.593H246.031L229.279 134.793Z" fill="white"/>
<mask id="mask3_4302_38" style="mask-type:alpha" maskUnits="userSpaceOnUse" x="271" y="104" width="77" height="152">
<mask id="mask4_4302_38" style="mask-type:alpha" maskUnits="userSpaceOnUse" x="196" y="104" width="152" height="152">
<path fill-rule="evenodd" clip-rule="evenodd" d="M271.56 255.594C313.259 255.594 347.059 221.791 347.059 180.093C347.059 138.396 313.259 104.593 271.56 104.593C229.863 104.593 196.06 138.396 196.06 180.093C196.06 221.791 229.863 255.594 271.56 255.594ZM271.56 225.393C296.579 225.393 316.858 205.112 316.858 180.093C316.858 155.075 296.579 134.793 271.56 134.793C246.541 134.793 226.26 155.075 226.26 180.093C226.26 205.112 246.541 225.393 271.56 225.393Z" fill="#D9D9D9"/>
</mask>
<g mask="url(#mask4_4302_38)">
<path d="M271.56 104.593H347.059V255.594H271.56V104.593Z" fill="#D9D9D9"/>
</g>
</mask>
<g mask="url(#mask3_4302_38)">
<path d="M216.031 128.653L351.462 50.4613L434.74 194.702L299.308 272.894L216.031 128.653Z" fill="white"/>
</g>
<path fill-rule="evenodd" clip-rule="evenodd" d="M244.296 255.436L250.683 266.5L250.847 266.402L283.839 323.548L289.755 320.135L295.795 330.597L289.88 334.011L296.373 345.256H304.806L300.471 337.748L313.739 330.088L322.493 345.256H331.245L316.035 318.912L310.235 322.258L304.196 311.796L309.993 308.448L267.691 235.179C264.919 245.997 255.655 254.217 244.296 255.436ZM221.1 210.292C216.797 215.102 214.179 221.453 214.179 228.412C214.179 232.752 215.196 236.855 217.005 240.493H205.114H186.999H102.439V210.292H221.1ZM305.089 360.355H305.261L305.134 360.43L305.089 360.355Z" fill="white"/>
<path fill-rule="evenodd" clip-rule="evenodd" d="M241.359 249.553C253.035 249.553 262.5 240.088 262.5 228.412C262.5 216.738 253.035 207.273 241.359 207.273C229.683 207.273 220.219 216.738 220.219 228.412C220.219 240.088 229.683 249.553 241.359 249.553ZM234.389 216.256L229.714 214.53C228.905 215.209 228.156 215.957 227.477 216.767L229.204 221.444C228.614 222.47 228.151 223.578 227.834 224.747L223.307 226.833C223.263 227.354 223.239 227.88 223.239 228.412C223.239 228.946 223.263 229.472 223.307 229.993L227.834 232.079C228.151 233.248 228.614 234.357 229.204 235.383L227.477 240.06C228.156 240.867 228.905 241.616 229.714 242.296L234.389 240.57C235.417 241.159 236.525 241.623 237.692 241.94L239.778 246.464C240.299 246.511 240.828 246.532 241.359 246.532C241.893 246.532 242.419 246.511 242.94 246.464L245.026 241.94C246.196 241.623 247.304 241.159 248.33 240.57L253.007 242.296C253.814 241.616 254.563 240.867 255.241 240.06L253.515 235.383C254.106 234.357 254.57 233.248 254.885 232.079L259.411 229.993C259.456 229.472 259.479 228.946 259.479 228.412C259.479 227.88 259.456 227.354 259.411 226.833L254.885 224.747C254.57 223.578 254.106 222.47 253.515 221.444L255.241 216.767C254.563 215.957 253.814 215.209 253.007 214.53L248.33 216.256C247.304 215.667 246.196 215.204 245.026 214.887L242.94 210.362C242.419 210.316 241.893 210.292 241.359 210.292C240.828 210.292 240.299 210.316 239.778 210.362L237.692 214.887C236.525 215.204 235.417 215.667 234.389 216.256ZM250.512 228.226C250.512 233.384 246.332 237.567 241.173 237.567C236.015 237.567 231.832 233.384 231.832 228.226C231.832 223.068 236.015 218.887 241.173 218.887C246.332 218.887 250.512 223.068 250.512 228.226Z" fill="url(#paint0_linear_4302_38)"/>
<defs>
<linearGradient id="paint0_linear_4302_38" x1="241.359" y1="207.273" x2="241.359" y2="249.553" gradientUnits="userSpaceOnUse">
<stop stop-color="#1F70C9"/>
<stop offset="1" stop-color="#17727A"/>
</linearGradient>
</defs>
</svg>
