<svg width="550" height="275" viewBox="0 0 550 275" fill="none" xmlns="http://www.w3.org/2000/svg">
<mask id="mask0_448_212" style="mask-type:alpha" maskUnits="userSpaceOnUse" x="53" y="63" width="147" height="148">
<path fill-rule="evenodd" clip-rule="evenodd" d="M126.354 191.829C156.73 191.829 181.354 167.204 181.354 136.828C181.354 106.452 156.73 81.8281 126.354 81.8281C95.9783 81.8281 71.3538 106.452 71.3538 136.828C71.3538 167.204 95.9783 191.829 126.354 191.829ZM126.354 210.162C166.855 210.162 199.686 177.329 199.686 136.828C199.686 96.3274 166.855 63.4948 126.354 63.4948C85.8529 63.4948 53.0205 96.3274 53.0205 136.828C53.0205 177.329 85.8529 210.162 126.354 210.162Z" fill="white"/>
</mask>
<g mask="url(#mask0_448_212)">
<path d="M12.6875 46.9948H126.354V218.887H12.6875V46.9948Z" fill="white"/>
</g>
<mask id="mask1_448_212" style="mask-type:alpha" maskUnits="userSpaceOnUse" x="11" y="36" width="130" height="175">
<path d="M96.9465 36.6666L140.239 61.6614L54.2924 210.525L11 185.53L96.9465 36.6666Z" fill="#98203C"/>
</mask>
<g mask="url(#mask1_448_212)">
<path d="M126.354 63.4949H139.187V81.8282H126.354V63.4949Z" fill="white"/>
</g>
<mask id="mask2_448_212" style="mask-type:alpha" maskUnits="userSpaceOnUse" x="126" y="191" width="14" height="20">
<path d="M126.354 191.829H139.188V210.162H126.354V191.829Z" fill="#D9D9D9"/>
</mask>
<g mask="url(#mask2_448_212)">
<path d="M69.5215 177.161L107.627 155.161L158.043 242.486L119.938 264.486L69.5215 177.161Z" fill="white"/>
</g>
<path fill-rule="evenodd" clip-rule="evenodd" d="M139.188 81.8281H164.854V63.4948H149.356L139.188 81.8281Z" fill="white"/>
<mask id="mask3_448_212" style="mask-type:alpha" maskUnits="userSpaceOnUse" x="164" y="63" width="47" height="93">
<mask id="mask4_448_212" style="mask-type:alpha" maskUnits="userSpaceOnUse" x="119" y="63" width="92" height="93">
<path fill-rule="evenodd" clip-rule="evenodd" d="M164.854 155.161C190.168 155.161 210.686 134.641 210.686 109.328C210.686 84.0151 190.168 63.4948 164.854 63.4948C139.541 63.4948 119.021 84.0151 119.021 109.328C119.021 134.641 139.541 155.161 164.854 155.161ZM164.854 136.828C180.042 136.828 192.353 124.516 192.353 109.328C192.353 94.1404 180.042 81.8281 164.854 81.8281C149.666 81.8281 137.354 94.1404 137.354 109.328C137.354 124.516 149.666 136.828 164.854 136.828Z" fill="#D9D9D9"/>
</mask>
<g mask="url(#mask4_448_212)">
<path d="M164.854 63.4948H210.686V155.161H164.854V63.4948Z" fill="#D9D9D9"/>
</g>
</mask>
<g mask="url(#mask3_448_212)">
<path d="M131.145 78.1006L213.36 30.6332L263.916 118.196L181.699 165.664L131.145 78.1006Z" fill="white"/>
</g>
<path fill-rule="evenodd" clip-rule="evenodd" d="M148.303 155.066L152.181 161.782L152.28 161.723L172.309 196.414L175.9 194.342L179.566 200.693L175.976 202.767L179.917 209.592H185.037L182.406 205.034L190.46 200.385L195.774 209.592H201.087L191.853 193.6L188.333 195.631L184.666 189.281L188.186 187.247L162.506 142.768C160.823 149.336 155.199 154.326 148.303 155.066ZM134.222 127.661C131.61 130.581 130.021 134.436 130.021 138.661C130.021 141.296 130.638 143.786 131.736 145.995H124.518H113.521H62.1875V127.661H134.222ZM185.209 218.759H185.313L185.236 218.805L185.209 218.759Z" fill="white"/>
<path fill-rule="evenodd" clip-rule="evenodd" d="M146.521 151.495C153.608 151.495 159.354 145.749 159.354 138.661C159.354 131.574 153.608 125.828 146.521 125.828C139.433 125.828 133.688 131.574 133.688 138.661C133.688 145.749 139.433 151.495 146.521 151.495ZM142.289 131.282L139.451 130.234C138.96 130.646 138.506 131.101 138.094 131.592L139.141 134.43C138.783 135.053 138.502 135.726 138.31 136.436L135.562 137.702C135.535 138.018 135.521 138.338 135.521 138.661C135.521 138.985 135.535 139.305 135.562 139.621L138.31 140.887C138.502 141.597 138.783 142.27 139.141 142.893L138.094 145.732C138.506 146.222 138.96 146.677 139.451 147.089L142.289 146.041C142.913 146.399 143.585 146.681 144.295 146.873L145.561 149.62C145.878 149.648 146.198 149.661 146.521 149.661C146.844 149.661 147.164 149.648 147.48 149.62L148.746 146.873C149.456 146.681 150.129 146.399 150.752 146.041L153.591 147.089C154.082 146.677 154.536 146.222 154.948 145.732L153.9 142.893C154.258 142.27 154.54 141.597 154.732 140.887L157.48 139.621C157.507 139.305 157.521 138.985 157.521 138.661C157.521 138.338 157.507 138.018 157.48 137.702L154.732 136.436C154.54 135.726 154.258 135.053 153.9 134.43L154.948 131.592C154.536 131.101 154.082 130.646 153.591 130.234L150.752 131.282C150.129 130.924 149.456 130.642 148.746 130.451L147.48 127.703C147.164 127.676 146.844 127.661 146.521 127.661C146.198 127.661 145.878 127.676 145.561 127.703L144.295 130.451C143.585 130.642 142.913 130.924 142.289 131.282ZM152.077 138.548C152.077 141.68 149.539 144.218 146.408 144.218C143.276 144.218 140.737 141.68 140.737 138.548C140.737 135.417 143.276 132.878 146.408 132.878C149.539 132.878 152.077 135.417 152.077 138.548Z" fill="#23B0CF"/>
<path d="M377.182 171.767C372.176 175.833 367.221 179.86 362.236 183.908C362.131 183.812 362.027 183.743 361.957 183.648C359.838 180.804 357.712 177.967 355.625 175.101C355.349 174.724 355.109 174.694 354.722 174.764C351.256 175.397 347.786 176.006 344.323 176.655C343.804 176.752 343.565 176.615 343.322 176.163C340.59 171.091 338.484 165.772 336.912 160.234C336.788 159.795 336.934 159.625 337.266 159.424C340.242 157.617 343.205 155.789 346.187 153.989C346.599 153.741 346.727 153.515 346.614 153.017C345.919 149.954 345.389 146.861 345.249 143.716C345.23 143.28 345.006 143.199 344.672 143.102C341.31 142.126 337.952 141.136 334.593 140.149C334.411 140.095 334.23 140.034 334.026 139.971C334.026 138.028 333.959 136.092 334.04 134.161C334.198 130.439 334.748 126.764 335.552 123.125C335.691 122.492 335.915 122.222 336.61 122.144C339.9 121.779 343.18 121.325 346.467 120.931C347.13 120.853 347.499 120.685 347.737 119.934C348.599 117.215 349.575 114.532 350.557 111.853C350.746 111.337 350.587 111.057 350.264 110.728C347.999 108.43 345.742 106.123 343.481 103.822C342.909 103.24 342.806 102.581 343.172 101.847C345.709 96.7507 348.965 92.1481 352.718 87.8814C352.991 87.5713 353.195 87.5687 353.536 87.7302C356.599 89.1912 359.668 90.6354 362.736 92.0848C362.928 92.1752 363.121 92.2643 363.312 92.3522C364.733 91.0062 366.124 89.664 367.544 88.3529C368.475 87.4925 369.43 86.6529 370.414 85.8533C370.862 85.489 370.976 85.1699 370.784 84.6054C369.684 81.3708 368.631 78.122 367.55 74.8809C367.442 74.5567 367.422 74.3565 367.758 74.1356C372.615 70.9475 377.591 67.9777 382.971 65.7326C383.529 65.5 383.834 65.5788 384.226 66.0284C386.448 68.5706 388.706 71.0805 390.944 73.6072C391.218 73.916 391.442 74.0697 391.921 73.9457C395.038 73.1409 398.164 72.3723 401.299 71.6411C401.756 71.5352 401.932 71.3595 402.046 70.941C402.955 67.5824 403.898 64.2341 404.792 60.8716C404.943 60.3032 405.215 60.1314 405.762 60.125C409.331 60.0888 412.901 59.979 416.47 60.0035C418.357 60.0165 420.24 60.258 422.128 60.3717C422.537 60.3962 422.606 60.6443 422.678 60.9465C423.465 64.2483 424.268 67.5462 425.025 70.8545C425.161 71.4474 425.427 71.645 426.011 71.7923C429.008 72.5493 431.988 73.3695 434.964 74.2027C435.376 74.3177 435.615 74.2725 435.916 73.9715C438.383 71.5107 440.875 69.0744 443.346 66.6174C443.682 66.2829 443.966 66.2015 444.421 66.4004C449.437 68.5964 454.231 71.1813 458.676 74.3965C459.154 74.7427 459.218 75.0424 459.063 75.563C458.119 78.7317 457.216 81.9133 456.26 85.0795C456.101 85.6052 456.242 85.8726 456.617 86.2227C458.872 88.3399 461.107 90.4791 463.321 92.6403C463.667 92.9774 463.941 92.98 464.343 92.825C467.448 91.6249 470.564 90.4533 473.663 89.2403C474.132 89.0569 474.358 89.1383 474.663 89.5258C478.049 93.8313 480.988 98.421 483.537 103.266C483.802 103.77 483.673 104.022 483.341 104.359C480.972 106.766 478.621 109.19 476.245 111.591C475.937 111.902 475.911 112.147 476.054 112.548C477.023 115.253 477.967 117.968 478.899 120.686C479.012 121.018 479.154 121.146 479.512 121.194C482.923 121.642 486.326 122.13 489.738 122.567C490.239 122.631 490.374 122.867 490.461 123.282C491.23 126.951 491.672 130.664 491.888 134.401C491.984 136.074 491.973 137.753 492.035 139.43C492.05 139.853 491.951 140.063 491.506 140.206C488.259 141.256 485.027 142.353 481.781 143.404C481.294 143.562 481.13 143.807 481.062 144.301C480.67 147.174 480.25 150.043 479.8 152.907C479.732 153.34 479.948 153.482 480.209 153.671C482.954 155.671 485.692 157.682 488.449 159.667C488.95 160.027 489.051 160.412 488.893 160.987C487.399 166.425 485.11 171.53 482.455 176.486C482.292 176.789 482.119 176.843 481.788 176.77C478.478 176.024 475.159 175.309 471.849 174.557C471.324 174.437 471.049 174.569 470.746 175.016C468.845 177.826 466.907 180.611 464.88 183.55C459.713 179.358 454.678 175.274 449.593 171.151C450.171 170.45 450.675 169.842 451.176 169.231C455.848 163.529 458.923 157.047 460.665 149.902C461.916 144.775 462.279 139.58 461.792 134.344C460.876 124.512 457.321 115.709 451.073 108.058C443.557 98.855 433.963 92.9335 422.267 90.7853C407.298 88.0364 393.778 91.5371 381.997 101.188C373.248 108.355 367.732 117.6 365.327 128.661C363.127 138.779 364.407 148.526 368.551 157.955C370.676 162.789 373.412 167.24 376.812 171.282C376.922 171.413 377.019 171.552 377.18 171.765L377.182 171.767ZM353.821 91.1198C350.951 94.5275 348.466 98.1277 346.387 102.01C346.207 102.345 346.334 102.508 346.545 102.724C348.949 105.186 351.346 107.655 353.749 110.119C354.052 110.431 354.317 110.675 354.06 111.212C352.269 114.966 350.941 118.888 349.959 122.927C349.862 123.325 349.693 123.475 349.278 123.524C346.034 123.917 342.793 124.33 339.554 124.756C338.125 124.944 338.147 124.968 337.877 126.402C337.208 129.964 336.961 133.561 336.856 137.176C336.842 137.675 337.05 137.839 337.479 137.962C340.739 138.899 343.991 139.871 347.256 140.79C347.866 140.962 348.118 141.181 348.1 141.863C348.073 142.89 348.122 143.935 348.286 144.949C348.796 148.107 349.361 151.256 349.945 154.401C350.04 154.914 349.932 155.153 349.49 155.419C346.561 157.18 343.656 158.979 340.734 160.753C340.393 160.96 340.243 161.156 340.374 161.573C341.605 165.518 343.134 169.341 344.997 173.031C345.166 173.366 345.337 173.504 345.739 173.407C346.448 173.238 347.175 173.141 347.893 173.012C350.579 172.53 353.267 172.06 355.95 171.557C356.575 171.44 356.901 171.596 357.277 172.167C358.814 174.497 360.445 176.766 362.049 179.051C362.227 179.305 362.454 179.525 362.671 179.774C366.172 176.929 369.604 174.138 373.058 171.331C372.918 171.13 372.826 170.988 372.724 170.853C369.803 167.021 367.446 162.864 365.56 158.433C361.465 148.811 360.234 138.868 362.333 128.586C364.485 118.049 369.364 108.933 377.189 101.556C390.035 89.4457 405.286 84.8018 422.668 87.8943C435.681 90.2091 446.24 96.8799 454.25 107.365C462.711 118.44 466.097 131.011 464.535 144.874C463.84 151.045 461.975 156.873 459.144 162.395C457.639 165.33 455.874 168.098 453.748 170.762C457.245 173.602 460.725 176.429 464.237 179.281C464.44 179.024 464.582 178.866 464.698 178.692C466.27 176.332 467.851 173.977 469.396 171.597C469.652 171.203 469.86 171.109 470.323 171.215C473.611 171.962 476.908 172.671 480.202 173.396C480.484 173.458 480.712 173.53 480.891 173.172C482.737 169.479 484.416 165.719 485.612 161.755C485.73 161.365 485.628 161.17 485.325 160.956C484.641 160.471 483.988 159.943 483.304 159.456C481.166 157.936 479.02 156.427 476.878 154.912C476.642 154.745 476.397 154.634 476.504 154.21C477.524 150.197 478.004 146.099 478.357 141.984C478.388 141.618 478.516 141.415 478.895 141.301C479.922 140.991 480.933 140.63 481.951 140.29C484.31 139.503 486.669 138.718 489.057 137.921C489.057 137.728 489.057 137.558 489.057 137.387C489.034 133.768 488.675 130.177 488.101 126.606C487.884 125.254 487.865 125.254 486.47 125.069C483.423 124.665 480.375 124.258 477.327 123.87C476.847 123.81 476.567 123.685 476.487 123.131C476.384 122.413 476.195 121.695 475.952 121.01C474.881 117.999 473.779 114.998 472.679 111.996C472.542 111.623 472.414 111.326 472.778 110.958C475.092 108.618 477.365 106.237 479.687 103.906C480.114 103.476 480.172 103.173 479.873 102.649C477.989 99.3627 475.983 96.1603 473.714 93.1234C473.357 92.6454 473.064 92.6054 472.547 92.8082C469.549 93.9837 466.53 95.1101 463.537 96.2986C462.993 96.5143 462.722 96.4109 462.363 95.9885C459.594 92.7358 456.533 89.7841 453.133 87.1928C452.809 86.9461 452.732 86.7381 452.853 86.3338C453.812 83.1018 454.731 79.8568 455.689 76.6248C455.831 76.1469 455.722 75.904 455.32 75.6327C452.089 73.4458 448.667 71.6076 445.143 69.9476C444.63 69.7061 444.297 69.7952 443.901 70.1918C441.543 72.5506 439.152 74.8745 436.793 77.2307C436.408 77.6143 436.079 77.719 435.551 77.5278C431.585 76.0913 427.535 74.9597 423.364 74.2893C422.983 74.2286 422.781 74.0916 422.684 73.6783C421.893 70.3119 421.059 66.9559 420.274 63.5882C420.178 63.1787 420.017 63.0935 419.645 63.0599C415.719 62.7034 411.792 62.6142 407.857 62.8842C407.422 62.9139 407.23 63.0573 407.115 63.4797C406.218 66.775 405.271 70.0561 404.408 73.3605C404.239 74.0103 403.924 74.2169 403.339 74.3009C399.138 74.9016 395.022 75.8562 391.045 77.3598C390.637 77.5149 390.393 77.427 390.107 77.1041C387.889 74.5877 385.638 72.0997 383.43 69.573C383.005 69.0873 382.652 69.0576 382.102 69.3147C378.395 71.0431 374.856 73.0724 371.406 75.2633C370.989 75.5281 370.895 75.7671 371.056 76.2425C372.121 79.375 373.14 82.5244 374.213 85.653C374.39 86.1698 374.297 86.4526 373.89 86.7795C370.551 89.4664 367.4 92.3612 364.454 95.4744C364.086 95.8645 363.814 95.8658 363.36 95.6462C360.205 94.1297 357.035 92.6454 353.813 91.1237L353.821 91.1198Z" fill="white"/>
<path d="M439.597 168.373C438.269 168.373 436.943 168.376 435.616 168.373C429.636 168.359 423.656 168.337 417.676 168.346C417.286 168.346 416.83 168.499 416.516 168.732C414.267 170.404 411.059 170.396 408.674 168.703C408.366 168.484 407.941 168.329 407.569 168.325C405.396 168.297 403.224 168.322 401.051 168.329C397.157 168.344 393.264 168.359 389.369 168.372C388.252 168.376 387.134 168.372 385.91 168.372C386.061 168.134 386.173 167.917 386.323 167.73C386.915 166.99 386.97 166.182 386.54 165.378C386.075 164.508 385.552 163.667 385.012 162.841C384.772 162.472 384.714 162.235 385.026 161.845C388.097 158.021 391.135 154.171 394.204 150.347C394.368 150.141 394.74 149.975 395 149.994C398.397 150.252 401.719 149.865 405.048 149.157C406.459 148.856 407.99 149.11 409.467 149.118C409.632 149.118 409.799 149.161 410.048 149.196C409.44 145.675 409.663 142.27 411.037 138.945C410.481 138.775 409.992 138.637 409.512 138.478C408.122 138.018 406.86 137.337 405.888 136.221C405.51 135.787 405.172 135.769 404.665 135.976C402.33 136.929 399.897 137.604 397.374 137.174C394.166 136.627 391.563 135.005 389.852 132.147C389.466 131.501 389.56 131.271 390.221 130.939C391.05 130.523 391.744 129.955 392.184 129.134C392.932 127.738 393.853 126.481 395.025 125.41C395.098 125.343 395.151 125.251 395.255 125.119C393.76 124.71 392.444 124.036 391.558 122.838C390.773 121.779 390.168 120.579 389.547 119.407C388.986 118.345 388.546 117.22 387.991 116.156C387.412 115.049 386.573 114.164 385.458 113.565C385.345 113.504 385.239 113.428 385.137 113.349C385.09 113.311 385.06 113.251 385.025 113.204C385.754 111.061 387.556 110.444 391.25 111.084C390.852 109.318 389.776 107.98 388.577 106.747C389.891 105.222 392.743 105.625 396.015 107.828C395.791 106.675 395.625 105.676 395.391 104.693C395.258 104.132 395.017 103.597 394.822 103.051C394.566 102.334 394.618 102.207 395.342 102.125C397.757 101.847 399.836 102.57 401.578 104.266C401.653 104.34 401.712 104.43 401.916 104.682C402.075 103.481 402.262 102.463 402.33 101.437C402.397 100.405 402.344 99.364 402.344 98.2608C405.27 98.195 407.829 99.1612 409.734 101.684C410.169 100.927 410.563 100.171 411.025 99.4596C411.619 98.5399 412.275 97.6602 412.89 96.7521C413.205 96.287 413.487 96.247 413.802 96.7417C414.803 98.3177 415.811 99.8898 416.81 101.466C416.923 101.641 417.004 101.836 417.145 102.109C419.297 99.8161 421.782 98.5024 424.951 99.125C424.587 100.881 424.227 102.623 423.865 104.366C423.933 104.401 424.003 104.436 424.071 104.472C425.708 103.316 427.487 102.645 429.506 102.847C429.812 102.878 430.108 103.007 430.39 103.084C429.989 104.659 429.612 106.147 429.215 107.705C430.304 107.417 431.251 107.113 432.223 106.925C433.247 106.725 434.282 106.765 435.26 107.203C435.971 107.522 436.048 107.771 435.523 108.333C434.579 109.343 433.92 110.504 433.509 111.817C433.468 111.951 433.441 112.089 433.388 112.311C435.448 111.494 437.457 111.239 439.451 112.155C439.941 112.38 440.319 112.844 440.877 113.302C438.059 114.5 436.832 116.851 435.51 119.115C434.568 120.729 433.779 122.471 432.225 123.607C431.144 124.397 429.95 125.034 428.808 125.738C430.286 126.502 431.211 127.942 432.105 129.422C433.043 130.974 434.36 131.936 436.262 131.904C436.489 131.9 436.718 131.963 437.001 132.002C436.819 133.185 436.125 134.002 435.409 134.794C432.269 138.262 428.374 139.103 423.953 138.035C422.764 137.748 421.558 137.464 420.723 136.37C419.708 138.06 418.052 138.602 416.312 139.019C416.055 139.081 415.705 139.244 415.617 139.453C414.282 142.636 413.958 145.922 414.715 149.301C414.724 149.342 414.753 149.378 414.781 149.433C415.685 149.218 416.587 148.96 417.504 148.791C419.766 148.371 421.985 148.521 424.174 149.291C426.056 149.954 427.943 150.648 429.993 150.555C430.53 150.53 431.076 150.54 431.599 150.442C432.029 150.361 432.219 150.527 432.414 150.857C434.584 154.516 436.771 158.167 438.927 161.836C439.059 162.06 439.034 162.445 438.953 162.717C438.712 163.515 438.342 164.278 438.147 165.084C437.932 165.968 438.136 166.795 438.875 167.419C439.153 167.654 439.426 167.897 439.701 168.136C439.668 168.216 439.636 168.294 439.603 168.375L439.597 168.373ZM437.323 161.571C437.292 161.451 437.289 161.383 437.258 161.333C435.415 158.228 433.565 155.127 431.733 152.016C431.525 151.663 431.255 151.68 430.923 151.672C429.81 151.643 428.666 151.727 427.592 151.499C425.938 151.146 424.344 150.526 422.704 150.101C419.722 149.327 416.865 149.755 414.148 151.162C413.945 151.266 413.714 151.549 413.702 151.76C413.533 154.829 413.395 157.9 413.259 160.97C413.245 161.297 413.284 161.625 413.301 162.004C413.482 161.945 413.572 161.936 413.637 161.892C415.981 160.278 418.624 159.776 421.409 159.787C424.633 159.798 427.77 160.477 430.923 161.019C433.022 161.381 435.119 161.736 437.323 161.572V161.571ZM411.836 161.846C411.873 161.641 411.906 161.536 411.911 161.43C412.066 158.343 412.207 155.254 412.384 152.168C412.413 151.651 412.21 151.388 411.792 151.164C409.49 149.936 407.068 149.854 404.592 150.432C401.6 151.131 398.581 151.406 395.512 151.191C395.243 151.173 394.871 151.41 394.685 151.64C392.781 153.997 390.905 156.377 389.022 158.751C388.307 159.652 387.596 160.558 386.832 161.524C387.898 161.524 388.867 161.631 389.805 161.505C392.932 161.084 396.045 160.567 399.169 160.112C401.6 159.758 404.043 159.638 406.493 159.912C408.4 160.125 410.159 160.766 411.836 161.846ZM413.404 99.1108C412.94 99.6689 412.56 100.031 412.291 100.463C409.268 105.32 407.858 110.54 408.91 116.262C409.241 118.064 409.775 119.849 411.059 121.225C412.854 123.148 414.028 123.186 415.687 120.96C416.321 120.11 416.688 119.013 416.996 117.976C418.693 112.255 417.799 106.799 415.125 101.574C414.692 100.729 414.033 99.9996 413.404 99.1108ZM416.236 133.637C416.255 133.582 416.276 133.525 416.295 133.469C418.748 133.469 420.474 131.847 420.232 129.659C420.155 128.959 419.885 128.218 419.502 127.625C417.947 125.214 415.752 124.081 412.816 124.215C410.181 124.335 408.229 125.41 406.833 127.624C405.485 129.759 406.251 132.198 408.618 133.11C410.071 133.671 411.453 133.327 412.792 132.707C413.187 132.524 413.467 132.579 413.859 132.767C414.618 133.128 415.44 133.357 416.236 133.64V133.637ZM409.83 122.123C409.743 121.966 409.704 121.869 409.642 121.791C407.809 119.498 407.055 116.838 406.945 113.949C406.826 110.809 407.444 107.798 408.454 104.845C408.551 104.561 408.61 104.197 408.52 103.925C407.913 102.097 406.627 100.895 404.883 100.152C404.682 100.065 404.453 100.042 404.218 99.9854C404.107 100.992 404.027 101.911 403.902 102.825C403.523 105.57 403.044 108.304 402.757 111.058C402.406 114.438 403.464 117.426 405.708 119.97C406.775 121.181 408.115 121.938 409.828 122.124L409.83 122.123ZM434.279 133.042C432.662 132.388 431.737 131.156 430.843 129.88C430.289 129.089 429.708 128.317 429.103 127.563C428.439 126.735 427.542 126.292 426.491 126.203C425.294 126.102 424.092 126.052 422.895 125.954C422.086 125.887 421.281 125.774 420.409 125.675C420.487 125.883 420.518 126.03 420.59 126.153C421.531 127.769 422.217 129.457 422.233 131.373C422.238 131.966 422.587 132.383 423.154 132.657C425.645 133.857 428.25 134.445 431.017 134.205C432.14 134.106 433.216 133.835 434.279 133.043V133.042ZM416.493 122.422C416.867 122.802 417.239 122.808 417.738 122.541C419.862 121.404 421.111 119.609 421.792 117.358C422.528 114.926 422.431 112.432 422.31 109.94C422.16 106.894 421.891 103.845 422.688 100.839C422.696 100.808 422.656 100.766 422.605 100.656C420.679 101.147 419.198 102.274 418.03 103.853C417.946 103.967 417.994 104.221 418.049 104.386C418.762 106.492 419.244 108.643 419.39 110.865C419.663 115.026 419.034 118.958 416.493 122.422ZM406.957 123.082C406.927 122.961 406.931 122.904 406.906 122.887C406.747 122.777 406.585 122.674 406.421 122.572C403.853 120.974 402.212 118.708 401.472 115.772C400.783 113.039 401.064 110.312 401.449 107.578C401.489 107.294 401.531 106.938 401.401 106.716C400.643 105.42 399.603 104.412 398.157 103.911C397.817 103.794 397.43 103.814 396.951 103.759C397.076 104.569 397.225 105.22 397.268 105.877C397.417 108.148 397.482 110.427 397.668 112.694C397.882 115.317 398.738 117.716 400.393 119.81C401.814 121.607 403.567 122.812 405.886 123.077C406.233 123.117 406.59 123.082 406.959 123.082H406.957ZM392.074 131.758C392.245 131.804 392.427 131.865 392.614 131.904C394.474 132.291 396.334 132.142 398.195 131.904C400.06 131.666 401.751 131.002 403.333 129.978C405.002 128.899 405.139 126.831 406.484 125.569C404.055 125.569 401.735 125.542 399.417 125.577C397.076 125.613 395.34 126.697 394.133 128.707C393.516 129.735 392.794 130.7 392.074 131.758ZM428.066 104.554C426.598 104.792 425.517 105.446 424.52 106.309C424.101 106.672 423.959 107.036 423.967 107.58C424.002 109.963 424.153 112.361 423.954 114.726C423.683 117.944 422.497 120.815 419.864 122.909C419.782 122.975 419.734 123.085 419.642 123.211C419.793 123.211 419.881 123.226 419.962 123.209C421.905 122.839 423.388 121.769 424.509 120.18C425.889 118.224 426.61 116.003 426.953 113.663C427.36 110.9 427.7 108.126 428.061 105.355C428.092 105.114 428.064 104.864 428.064 104.554H428.066ZM403.119 124.095C403.121 124.046 403.124 123.997 403.128 123.948C402.508 123.525 401.852 123.147 401.274 122.672C397.65 119.691 396.174 115.704 396.019 111.149C395.99 110.282 395.773 109.594 395.137 109.043C394.684 108.651 394.225 108.25 393.715 107.94C392.933 107.466 392.07 107.25 391.082 107.396C391.188 107.63 391.249 107.837 391.364 108.007C392.18 109.22 392.6 110.59 393.019 111.973C393.659 114.088 394.229 116.242 395.097 118.265C396.387 121.27 398.653 123.283 401.946 123.965C402.33 124.043 402.727 124.054 403.119 124.096V124.095ZM433.371 108.406C431.817 108.227 430.524 108.828 429.302 109.623C429.143 109.727 429.063 110.012 429.024 110.228C428.758 111.729 428.529 113.236 428.257 114.737C427.617 118.268 426.189 121.362 423.285 123.63C423.269 123.642 423.284 123.691 423.284 123.739C424.622 123.545 425.817 123.06 426.787 122.107C428.642 120.287 430.061 118.192 430.796 115.671C431.498 113.266 431.993 110.785 433.339 108.611C433.358 108.578 433.352 108.53 433.37 108.408L433.371 108.406ZM398.215 123.975C395.149 121.709 394.233 120.466 393.082 117.023C392.858 116.352 392.618 115.678 392.485 114.987C392.165 113.31 390.952 112.685 389.482 112.432C388.727 112.301 387.913 112.246 387.156 112.77C387.339 112.996 387.463 113.199 387.632 113.354C388.7 114.341 389.332 115.602 389.914 116.901C390.493 118.192 391.034 119.508 391.72 120.742C393.043 123.122 395.55 124.346 398.215 123.974V123.975ZM437.328 113.315C435.455 112.903 432.73 114.473 432.131 116.253C431.01 119.58 429.056 122.271 426.122 124.228C426.05 124.276 426.014 124.375 425.914 124.519C428.63 124.552 430.786 123.571 432.362 121.479C433.107 120.49 433.685 119.374 434.331 118.31C435.232 116.828 436.126 115.342 437.023 113.855C437.12 113.694 437.208 113.527 437.328 113.314V113.315ZM412.663 163.071C411.598 164.207 410.73 165.362 410.34 166.809C410.101 167.691 410.394 168.306 411.292 168.426C412.208 168.549 413.174 168.548 414.083 168.397C415.029 168.24 415.286 167.642 414.988 166.718C414.539 165.326 413.719 164.162 412.663 163.069V163.071ZM413.802 139.317C412.306 139.264 412.684 138.957 412.16 140.404C411.147 143.202 411.063 146.072 411.583 148.985C411.686 149.566 411.893 149.999 412.456 150.199C412.678 150.278 412.921 150.303 413.153 150.35C413.162 150.114 413.218 149.869 413.171 149.644C412.784 147.735 412.572 145.809 412.877 143.876C413.116 142.358 413.483 140.86 413.801 139.316L413.802 139.317ZM387.907 166.973C387.955 167.047 388.004 167.122 388.052 167.195H408.996C408.911 167.129 408.857 167.057 408.787 167.039C405.493 166.164 402.147 165.792 398.766 166.297C395.311 166.813 391.868 167.203 388.377 166.702C388.235 166.681 388.063 166.877 387.906 166.973H387.907ZM417.694 166.892C417.697 166.954 417.698 167.017 417.7 167.079H437.102C436.976 166.898 436.808 166.819 436.64 166.818C435.332 166.804 434.009 166.921 432.716 166.775C429.489 166.41 426.271 166 423.011 166.086C421.2 166.133 419.434 166.416 417.695 166.893L417.694 166.892ZM409.854 164.526C409.694 164.432 409.624 164.38 409.547 164.347C409.389 164.277 409.228 164.219 409.069 164.153C406.499 163.105 403.802 163.091 401.124 163.365C398.115 163.672 395.127 164.205 392.127 164.618C391.32 164.729 390.503 164.765 389.691 164.835C389.905 164.969 390.116 164.998 390.328 165.013C392.858 165.192 395.353 164.906 397.82 164.37C400.365 163.817 402.92 163.565 405.496 164.061C406.864 164.325 408.21 164.694 409.617 165.028C409.682 164.889 409.761 164.723 409.854 164.525V164.526ZM436.878 165.952C436.87 165.923 436.864 165.892 436.856 165.862C435.643 165.791 434.417 165.809 433.22 165.631C429.776 165.118 426.345 164.49 422.842 164.587C420.694 164.646 418.62 165.078 416.644 165.931C416.484 165.999 416.353 166.137 416.208 166.243C416.449 166.358 416.615 166.349 416.769 166.301C420.797 165.05 424.897 165.1 429.033 165.546C431.232 165.783 433.441 165.924 435.646 166.08C436.051 166.109 436.466 165.999 436.876 165.952H436.878ZM387.996 165.639C387.99 165.668 387.982 165.698 387.975 165.728C388.103 165.77 388.229 165.834 388.36 165.854C391.123 166.292 393.89 166.229 396.641 165.782C400.149 165.212 403.646 165.078 407.143 165.844C407.8 165.989 408.46 166.126 409.119 166.266C409.159 166.195 409.198 166.124 409.238 166.053C409.097 165.937 408.973 165.764 408.812 165.711C405.724 164.71 402.589 164.247 399.357 164.898C396.66 165.441 393.959 165.969 391.187 165.852C390.122 165.807 389.061 165.712 387.997 165.64L387.996 165.639ZM411.136 162.856C409.259 161.4 407.144 160.922 404.922 160.823C402.224 160.701 399.567 161.088 396.914 161.52C393.506 162.076 390.117 162.83 386.626 162.617C386.565 162.613 386.501 162.657 386.275 162.735C386.558 162.817 386.672 162.882 386.783 162.878C388.478 162.822 390.183 162.861 391.864 162.671C394.977 162.319 398.067 161.761 401.181 161.42C404.456 161.062 407.711 161.097 410.69 162.847C410.801 162.913 410.985 162.855 411.134 162.855L411.136 162.856ZM414.729 163.437C417.008 161.819 419.53 161.274 422.211 161.268C425.044 161.263 427.805 161.821 430.574 162.306C432.715 162.68 434.857 163.02 437.042 162.885C437.233 162.873 437.423 162.829 437.614 162.799C437.611 162.746 437.605 162.695 437.602 162.642C437.422 162.642 437.242 162.646 437.064 162.642C436.077 162.613 435.076 162.677 434.105 162.537C431.174 162.113 428.258 161.573 425.327 161.148C422.831 160.785 420.321 160.638 417.83 161.208C416.533 161.504 415.313 161.989 414.201 162.799C414.396 163.034 414.545 163.213 414.732 163.439L414.729 163.437ZM415.773 165.167L415.862 165.347C416.066 165.273 416.273 165.208 416.473 165.126C418.398 164.327 420.402 163.878 422.483 163.802C425.636 163.685 428.74 164.13 431.847 164.601C433.344 164.829 434.872 164.854 436.387 164.942C436.59 164.954 436.803 164.795 437.013 164.715C436.996 164.64 436.98 164.565 436.963 164.49C435.699 164.49 434.421 164.609 433.173 164.466C430.507 164.159 427.863 163.66 425.197 163.348C422.112 162.988 419.103 163.286 416.316 164.817C416.127 164.92 415.954 165.05 415.773 165.166V165.167ZM410.341 163.71C410.363 163.687 410.386 163.663 410.408 163.64C410.194 163.514 409.985 163.378 409.764 163.263C407.125 161.891 404.281 161.913 401.45 162.192C398.74 162.46 396.053 162.952 393.35 163.307C391.76 163.516 390.16 163.651 388.563 163.818C389.457 163.853 390.359 163.944 391.235 163.837C394.047 163.496 396.849 163.065 399.658 162.7C402.159 162.374 404.67 162.227 407.158 162.77C408.237 163.005 409.282 163.391 410.343 163.709L410.341 163.71ZM435.006 163.892C435.014 163.831 435.021 163.769 435.028 163.709C434.63 163.67 434.229 163.652 433.833 163.591C431.096 163.166 428.365 162.7 425.623 162.312C423.119 161.958 420.61 161.869 418.149 162.635C417.089 162.965 416.082 163.408 415.251 164.215C415.488 164.256 415.702 164.22 415.882 164.122C418.005 162.968 420.288 162.465 422.691 162.431C425.372 162.394 427.989 162.917 430.621 163.324C432.077 163.548 433.544 163.705 435.006 163.892ZM413.923 137.796C413.923 136.94 413.9 136.111 413.932 135.283C413.95 134.803 413.732 134.503 413.305 134.496C412.882 134.49 412.705 134.852 412.7 135.26C412.692 135.795 412.696 136.328 412.696 136.863C412.696 137.914 412.719 137.934 413.923 137.796ZM416.007 134.575C415.577 134.756 415.025 134.861 415.01 135.014C414.926 135.914 414.968 136.826 414.968 137.732C415.972 137.704 415.993 137.704 416.002 137.247C416.017 136.435 416.006 135.624 416.006 134.575H416.007ZM411.639 134.896C411.279 134.867 410.948 134.841 410.543 134.809C410.543 135.448 410.543 136.021 410.543 136.593C410.543 137.492 410.628 137.568 411.639 137.515V134.896ZM417.092 137.234C417.151 137.283 417.211 137.332 417.27 137.381C417.507 137.186 417.923 137.012 417.948 136.793C418.034 136.043 417.981 135.277 417.981 134.458C417.619 134.509 417.353 134.547 417.092 134.584V137.235V137.234ZM399.273 133.243C399.22 133.187 399.166 133.128 399.113 133.072C398.878 133.243 398.463 133.395 398.441 133.59C398.36 134.303 398.409 135.03 398.409 135.759H399.275V133.245L399.273 133.243ZM400.263 135.728C400.597 135.552 401.012 135.446 401.022 135.31C401.084 134.494 401.053 133.67 401.053 132.794C400.714 132.868 400.491 132.915 400.263 132.964V135.729V135.728ZM402.837 132.334L402.645 132.22C402.445 132.431 402.097 132.626 402.073 132.856C401.998 133.569 402.045 134.295 402.045 135.014C402.1 135.053 402.154 135.092 402.208 135.131C402.419 134.918 402.783 134.721 402.809 134.486C402.889 133.777 402.837 133.052 402.837 132.333V132.334ZM396.642 133.471V135.671C396.908 135.693 397.135 135.711 397.412 135.734V133.471H396.642ZM423.161 136.103C423.281 134.45 423.353 134.349 422.217 134.149C422.095 135.675 422.133 135.753 423.161 136.103ZM408.649 134.62C408.342 136.193 408.477 136.581 409.465 136.802C409.465 136.32 409.431 135.852 409.474 135.389C409.531 134.779 409.321 134.498 408.649 134.619V134.62ZM404.328 131.593C404.163 131.791 403.877 131.977 403.854 132.193C403.788 132.795 403.831 133.41 403.831 134.048C404.394 133.823 404.56 133.005 404.328 131.593ZM425.11 136.749C425.325 135.268 425.265 135.151 424.268 135.042C423.988 136.398 424.092 136.623 425.11 136.749ZM419.063 136.19C419.94 135.686 420.104 135.08 419.743 133.998C419.168 134.035 419 134.36 419.056 134.901C419.097 135.3 419.063 135.707 419.063 136.19ZM426.217 135.539C425.941 136.913 426.044 137.089 427.059 137.017V135.611C426.744 135.584 426.477 135.561 426.217 135.539ZM395.592 135.251C395.612 134.909 395.646 134.571 395.649 134.236C395.655 133.479 395.603 133.444 394.827 133.601C394.587 134.901 394.666 135.083 395.592 135.252V135.251ZM428.088 137.03C428.943 137.061 429.038 136.872 428.783 135.799H428.088V137.03ZM406.755 134.064C406.598 134.746 406.807 135.206 407.422 135.491C407.532 134.728 407.31 134.252 406.755 134.064ZM429.835 135.672V136.886C430.113 136.668 430.374 136.563 430.441 136.385C430.529 136.155 430.463 135.867 430.463 135.574C430.191 135.616 430.023 135.642 429.835 135.672ZM392.822 133.423C392.804 133.472 392.786 133.521 392.769 133.57C393.075 133.832 393.381 134.095 393.766 134.425V133.497C393.436 133.471 393.13 133.446 392.823 133.423H392.822ZM432.746 135.237C431.847 135.306 431.454 135.586 431.568 136.079C431.976 135.787 432.361 135.512 432.746 135.237Z" fill="white"/>
<path d="M384.166 199.369C384.786 201.89 385.386 204.321 386.004 206.835C379.197 208.47 372.724 210.882 366.452 213.928C363.635 208.661 360.792 203.345 357.916 197.968C360.677 196.158 363.568 194.627 366.656 193.268C365.913 191.686 365.18 190.122 364.381 188.418C396.451 174.508 428.411 174.668 460.501 188.498C459.734 190.173 459.025 191.722 458.317 193.27C459.96 194.1 461.578 194.887 463.167 195.733C464.285 196.328 465.349 197.025 466.46 197.634C466.943 197.899 467.021 198.134 466.749 198.634C464.803 202.222 462.887 205.827 460.961 209.426C460.143 210.954 459.323 212.482 458.509 214C452.247 210.951 445.775 208.534 438.958 206.908C439.567 204.45 440.162 202.042 440.78 199.541C421.93 194.79 403.114 194.944 384.165 199.371L384.166 199.369ZM372.808 199.655C399.274 191.178 425.653 190.764 452.065 200.057C453.602 196.734 455.147 193.397 456.746 189.942C427.168 177.935 397.716 177.792 368.161 189.845C369.745 193.189 371.277 196.424 372.806 199.655H372.808ZM453.886 208.75C454.855 209.383 454.893 209.374 455.391 208.432C456.582 206.174 457.773 203.916 458.963 201.657C459.638 200.374 460.313 199.089 461.007 197.765C460.558 197.532 460.165 197.33 459.726 197.102C457.763 201.018 455.824 204.887 453.887 208.75H453.886ZM363.986 197.677C366.027 201.561 368.022 205.357 370.038 209.196C370.411 209.042 370.737 208.907 371.121 208.748C369.147 204.814 367.205 200.948 365.242 197.036C364.808 197.259 364.432 197.45 363.986 197.678V197.677ZM366.557 196.396C368.551 200.369 370.503 204.259 372.476 208.187C372.795 208.067 373.085 207.957 373.466 207.814C371.593 203.772 369.751 199.797 367.896 195.795C367.412 196.012 367.024 196.186 366.557 196.396ZM452.492 208.272C454.475 204.316 456.429 200.416 458.412 196.46C457.947 196.256 457.548 196.079 457.104 195.884C455.238 199.905 453.4 203.867 451.537 207.881C451.858 208.013 452.129 208.124 452.491 208.272H452.492ZM457.299 210.321C459.336 206.509 461.332 202.774 463.342 199.01C462.944 198.801 462.647 198.645 462.294 198.46C460.288 202.275 458.308 206.041 456.303 209.852C456.649 210.015 456.935 210.149 457.299 210.321ZM362.657 198.415C361.951 198.735 361.762 199.204 362.091 199.82C363.449 202.359 364.806 204.897 366.165 207.435C366.659 208.358 367.155 209.279 367.673 210.241C368.027 210.081 368.324 209.945 368.648 209.798C366.632 205.965 364.653 202.206 362.657 198.415ZM452.019 203.37C451.992 203.32 451.964 203.269 451.937 203.219C451.456 203.393 450.73 203.429 450.542 203.767C449.974 204.775 449.618 205.902 449.167 207.014C449.529 207.138 449.826 207.24 450.173 207.359C450.802 205.999 451.412 204.685 452.021 203.37H452.019ZM373.003 203.318C373.607 204.655 374.199 205.963 374.8 207.289C375.161 207.165 375.452 207.064 375.811 206.942C375.426 206.014 375.072 205.171 374.726 204.325C374.345 203.395 374.167 203.281 373.003 203.318ZM376.162 203.977C376.519 204.832 376.844 205.615 377.191 206.444C377.554 206.324 377.867 206.22 378.183 206.116C377.427 203.931 377.728 204.183 376.162 203.977ZM447.78 206.521C448.086 205.782 448.373 205.091 448.657 204.398C448.696 204.305 448.716 204.203 448.747 204.099C447.52 204.047 446.935 204.71 446.859 206.222C447.135 206.311 447.417 206.403 447.78 206.521ZM381.337 205.153C381.332 205.105 381.326 205.057 381.32 205.009C380.653 204.876 379.985 204.742 379.221 204.589C379.381 204.995 379.502 205.301 379.641 205.655C380.234 205.479 380.786 205.317 381.338 205.153H381.337ZM443.603 205.088C443.593 205.125 443.583 205.164 443.572 205.202C443.897 205.3 444.221 205.402 444.546 205.495C445.449 205.753 445.531 205.695 445.611 204.686C444.933 204.822 444.267 204.955 443.603 205.088Z" fill="white"/>
<path d="M356.229 121.132C356.486 120.298 356.777 119.571 357.778 119.522C358.561 119.483 359.189 120.079 359.546 121.178C359.3 121.315 359.045 121.457 358.805 121.59C358.531 121.227 358.311 120.885 358.034 120.598C357.929 120.49 357.596 120.421 357.533 120.49C357.353 120.683 357.216 120.946 357.155 121.203C357.133 121.296 357.356 121.51 357.505 121.567C358.202 121.834 358.912 122.067 359.608 122.308C359.516 122.894 359.165 123.114 358.554 122.967C358.283 123.799 358.06 124.711 356.92 124.729C356.38 124.738 355.911 124.515 355.747 123.99C355.542 123.333 355.703 122.701 356.068 122.015C355.929 122.104 355.702 122.166 355.666 122.286C355.36 123.288 355.088 124.299 354.784 125.392C356.136 125.736 357.372 126.049 358.676 126.38C358.588 126.697 358.516 126.954 358.433 127.249C357.162 126.943 355.937 126.649 354.651 126.339C354.616 126.688 354.585 126.996 354.549 127.357C355.245 127.535 355.928 127.702 356.606 127.891C356.754 127.933 356.973 128.039 356.991 128.145C357.012 128.267 356.884 128.471 356.761 128.555C356.313 128.862 355.84 129.133 355.24 129.501C355.271 128.722 355.149 128.234 354.244 128.381C354.188 128.951 354.124 129.603 354.052 130.33C355.309 130.576 356.565 130.82 357.894 131.078C357.841 131.355 357.796 131.599 357.728 131.959C356.466 131.732 355.21 131.505 353.861 131.262V132.805C355.091 132.981 356.335 133.158 357.649 133.345C357.632 133.618 357.615 133.885 357.593 134.237C356.279 134.074 355.016 133.918 353.699 133.755V135.102C354.944 135.215 356.198 135.327 357.511 135.444V136.271C357.3 136.294 357.092 136.316 356.847 136.344C356.982 136.776 357.164 137.191 357.234 137.625C357.297 138.018 357.317 138.453 357.213 138.83C356.989 139.654 356.414 139.849 355.557 139.475C355.538 139.485 355.515 139.492 355.502 139.506C355.169 139.88 354.812 140.326 354.262 140.105C353.675 139.871 353.839 139.291 353.868 138.804C353.879 138.609 353.87 138.412 353.764 138.217C353.479 139.218 353.461 140.22 353.719 141.261H357.529V142.155H353.679C353.722 142.622 353.754 142.961 353.79 143.36H357.722V144.226C357.291 144.253 356.856 144.28 356.316 144.313C356.905 144.961 357.43 145.542 357.987 146.157C357.822 146.395 357.657 146.631 357.464 146.909C357.046 146.391 356.672 145.927 356.224 145.373C356.109 146.763 355.11 146.631 354.2 146.701C354.149 147.165 354 147.541 353.328 147.328C353.162 145.757 352.995 144.147 352.81 142.384C352.403 143.233 352.057 143.955 351.669 144.763C351.443 144.506 351.269 144.307 351.115 144.132C351.523 143.092 352.741 142.614 352.877 141.444C352.825 141.398 352.774 141.352 352.721 141.307C352.085 142.024 351.45 142.74 350.773 143.504C350.598 143.198 350.492 143.014 350.348 142.76C351.049 142.256 351.752 141.77 352.429 141.251C352.582 141.132 352.728 140.896 352.734 140.71C352.787 138.908 352.81 137.106 352.837 135.304C352.846 134.712 352.838 134.119 352.838 133.406C352.154 134.039 351.545 134.601 350.875 135.221C350.704 134.868 350.562 134.574 350.404 134.246C351.088 133.805 351.717 133.352 352.391 132.984C352.889 132.712 353.157 132.418 352.982 131.825C352.923 131.63 352.973 131.403 352.973 131.191C351.211 131.147 350.425 129.748 351.395 128.229C351.93 127.39 352.668 126.667 353.385 125.965C353.839 125.521 354.107 125.087 354.196 124.436C354.32 123.529 354.625 122.648 354.848 121.756C354.941 121.385 355.021 121.011 355.112 120.621C354.728 120.726 354.4 120.911 354.1 120.872C353.793 120.832 353.441 120.636 353.239 120.397C352.788 119.863 352.943 118.874 353.507 118.266C354.162 117.564 355.034 117.356 355.935 117.193C356.127 117.158 356.385 117.02 356.455 116.86C356.683 116.342 356.972 116.37 357.385 116.681C357.334 116.914 357.278 117.158 357.207 117.478C358.392 117.959 359.57 118.437 360.792 118.933C360.672 119.226 360.576 119.457 360.451 119.765C359.218 119.284 358.029 118.819 356.801 118.34C356.435 119.268 356.051 120.143 356.233 121.133L356.229 121.132ZM355.587 137.35C355.623 137.692 355.612 138.022 355.703 138.319C355.8 138.629 356.012 138.883 356.347 138.511C356.778 138.032 356.238 136.31 355.603 136.209C354.979 136.11 354.342 136.092 353.666 136.034V137.187C354.011 137.209 354.321 137.228 354.714 137.253V139.144C354.772 139.147 354.83 139.151 354.888 139.153C354.933 138.807 355.002 138.461 355.02 138.112C355.038 137.749 354.962 137.354 355.586 137.351L355.587 137.35ZM353.74 126.697C352.642 127.424 352.04 128.234 351.893 129.097C351.841 129.402 351.889 129.837 352.076 130.038C352.257 130.232 352.683 130.255 352.993 130.236C353.09 130.23 353.195 129.847 353.24 129.626C353.37 128.978 353.474 128.323 353.585 127.671C353.64 127.346 353.688 127.022 353.74 126.698V126.697ZM356.002 117.985C355.205 118.13 354.496 118.216 354.063 118.865C353.842 119.197 353.7 119.708 354.155 119.848C354.523 119.96 355.166 119.849 355.393 119.585C355.724 119.2 355.791 118.588 356.002 117.985ZM354.04 145.909C354.595 145.71 355.079 145.604 355.471 145.352C355.581 145.281 355.502 144.581 355.362 144.522C354.935 144.344 354.436 144.337 353.896 144.253C353.948 144.85 353.984 145.268 354.04 145.908V145.909ZM356.796 122.361C356.456 123.045 356.485 123.724 356.879 123.772C357.095 123.798 357.454 123.549 357.564 123.33C357.836 122.789 357.645 122.577 356.795 122.361H356.796Z" fill="white"/>
<path d="M358.746 150.277C358.811 150.566 358.865 150.811 358.934 151.119C358.623 151.202 358.344 151.277 358.019 151.363C358.377 152.099 358.811 152.854 358.396 153.625C358.12 154.139 357.609 154.528 357.104 155.082C356.973 154.648 356.967 154.37 356.825 154.227C356.628 154.027 356.323 153.803 356.074 153.815C355.708 153.832 355.559 154.161 355.669 154.541C355.835 155.112 356.005 155.683 356.188 156.302C357.471 155.936 358.68 155.591 359.957 155.227C360.051 155.508 360.135 155.76 360.243 156.083C358.974 156.462 357.749 156.827 356.449 157.214C356.616 157.595 356.765 157.934 356.939 158.332C358.169 157.982 359.379 157.637 360.667 157.27C360.751 157.561 360.823 157.814 360.915 158.131C360.181 158.358 359.495 158.571 358.751 158.802C358.897 159.248 359.003 159.663 359.172 160.049C359.268 160.269 359.49 160.615 359.618 160.598C359.879 160.566 360.187 160.38 360.344 160.163C360.591 159.823 360.729 159.404 360.916 159.014C361.401 159.078 361.517 159.346 361.318 159.735C361.066 160.23 360.829 160.747 360.486 161.175C359.87 161.947 358.9 161.77 358.547 160.856C358.378 160.417 358.248 159.961 358.113 159.509C357.994 159.11 357.774 158.991 357.281 159.278C357.73 160.424 358.173 161.597 358.661 162.753C358.714 162.878 359.021 162.943 359.214 162.95C359.37 162.955 359.529 162.828 359.689 162.766C360.509 162.454 360.779 162.536 361.279 163.284C361.583 162.728 361.875 162.197 362.166 161.666C362.919 162.089 362.951 162.192 362.569 162.859C362.013 163.826 361.456 164.791 360.871 165.809C360.428 165.476 359.972 165.248 360.4 164.588C360.513 164.413 360.458 164.029 360.333 163.836C360.259 163.723 359.893 163.776 359.663 163.796C359.521 163.809 359.387 163.902 359.156 163.999C359.622 164.999 360.077 165.978 360.56 167.016C361.815 166.479 362.972 165.985 364.185 165.467C364.309 165.716 364.427 165.958 364.589 166.284C363.381 166.813 362.212 167.324 360.969 167.868C361.212 168.297 361.438 168.697 361.698 169.157C362.877 168.563 364.019 167.987 365.203 167.391C365.333 167.674 365.447 167.92 365.582 168.212C365.049 168.495 364.56 168.752 364.01 169.044C364.169 169.361 364.316 169.659 364.478 169.983C364.787 169.873 365.058 169.776 365.395 169.656C365.602 170.302 365.596 170.887 365.355 171.449C365.135 171.959 364.809 171.923 364.154 171.303C363.856 171.493 363.545 171.69 363.235 171.889L363.273 172.083C363.831 171.977 364.173 172.149 364.216 172.71C363.664 173.155 363.255 173.176 362.938 172.633C362.709 172.242 362.478 171.659 362.614 171.302C362.76 170.918 363.336 170.698 363.761 170.379C363.598 170.087 363.434 169.792 363.231 169.43C362.876 169.617 362.543 169.792 362.169 169.989C362.26 170.241 362.343 170.472 362.445 170.759C362.242 170.865 362.042 170.97 361.781 171.107C359.267 166.62 357.268 161.953 355.556 157.155C355.494 157.135 355.432 157.115 355.37 157.095C355.062 157.566 354.655 158.007 354.483 158.523C354.385 158.819 354.563 159.355 354.806 159.581C355.167 159.919 355.443 159.486 355.682 159.221C355.738 159.159 355.769 159.074 355.831 158.963C356.21 159.814 356.106 160.241 355.51 160.564C354.96 160.863 354.326 160.681 353.95 160.097C353.551 159.475 353.473 158.802 353.769 158.128C353.93 157.76 354.124 157.352 354.424 157.109C355.173 156.502 355.249 155.869 354.952 154.962C354.552 153.744 354.357 152.459 354.087 151.199C354.025 150.91 354.016 150.609 353.976 150.26C354.242 150.221 354.464 150.189 354.703 150.155C354.782 150.416 354.849 150.637 354.941 150.936C356.204 150.717 357.461 150.5 358.749 150.278L358.746 150.277ZM357.544 153.369C357.907 152.5 357.538 151.53 356.877 151.557C356.272 151.581 355.676 151.771 355.07 151.89C355.183 152.323 355.274 152.665 355.377 153.06C356.208 152.36 356.872 152.781 357.544 153.369Z" fill="white"/>
<path d="M365.988 107.403C365.932 107.777 365.891 108.068 365.841 108.405C364.644 108.466 363.473 108.524 362.261 108.585C362.213 108.287 362.173 108.041 362.123 107.727C362.543 107.653 362.921 107.587 363.301 107.521C363.319 107.463 363.338 107.405 363.357 107.347C363.027 107.104 362.698 106.861 362.264 106.541C361.865 107.268 361.511 107.945 361.126 108.605C360.845 109.086 361.044 109.308 361.48 109.537C362.407 110.025 363.306 110.565 364.265 111.113C364.104 111.393 363.971 111.627 363.814 111.901C363.216 111.574 362.659 111.27 362.043 110.934C361.938 111.602 360.968 111.857 361.415 112.735C361.964 112.619 362.523 112.501 363.083 112.382C363.291 113.252 363.254 113.314 362.445 113.455C361.516 113.615 360.587 113.772 359.603 113.939C359.525 113.642 359.457 113.384 359.38 113.092C359.782 112.965 360.137 112.854 360.69 112.68C360.185 112.373 359.84 112.163 359.441 111.92C359.063 112.63 358.723 113.267 358.355 113.956C358.104 113.849 357.878 113.753 357.613 113.641C358.347 112.185 359.015 110.744 359.783 109.361C360.644 107.81 361.6 106.311 362.5 104.78C362.638 104.545 362.708 104.267 362.788 104.004C363.15 102.809 364.61 102.432 365.47 103.317C366.04 103.902 365.925 104.514 365.432 105.229C366.337 105.132 366.465 104.468 366.663 103.929C366.989 103.043 366.856 102.85 365.476 101.925C365.276 102.18 365.071 102.44 364.87 102.695C364.128 102.361 364.079 102.239 364.579 101.639C365.98 99.9568 367.392 98.2814 368.822 96.6228C369.477 95.8619 370.185 95.1476 370.917 94.3583C371.138 94.605 371.301 94.7859 371.487 94.9938C371.324 95.1811 371.16 95.3723 370.95 95.6152C371.814 96.5336 372.678 97.4534 373.634 98.4687C373.403 98.6444 373.173 98.8214 372.93 99.0061C372.46 98.5604 371.967 98.0941 371.412 97.567C371.145 97.8525 370.846 98.1703 370.607 98.4248C370.753 98.7671 370.872 99.0435 370.991 99.32C370.671 99.413 370.353 99.5241 370.026 99.5926C369.863 99.6261 369.678 99.6068 369.514 99.5667C368.972 99.4324 368.834 99.0384 369.239 98.6521C369.8 98.1199 370.417 97.6471 371.054 97.1111C370.693 96.7222 370.523 96.5414 370.278 96.2779C369.344 97.2996 368.441 98.2879 367.501 99.3174C368.515 100.231 369.45 101.074 370.435 101.962C370.234 102.199 370.062 102.402 369.846 102.655C368.862 101.785 367.919 100.95 366.915 100.063C366.634 100.408 366.369 100.732 366.05 101.121C367.065 101.946 368.055 102.752 369.096 103.598C368.896 103.849 368.728 104.06 368.535 104.301C368.219 104.062 367.931 103.845 367.599 103.593C367.455 104.027 367.346 104.43 367.191 104.814C366.831 105.699 366.158 106.148 365.205 106.209C364.523 106.253 364.084 106.816 364.142 107.609C364.726 107.543 365.31 107.478 365.984 107.401L365.988 107.403ZM364.603 104.565L364.661 104.828C364.346 105.005 364.037 105.2 363.712 105.355C363.471 105.47 363.208 105.533 362.955 105.621C363.146 105.843 363.329 106.072 363.531 106.284C363.597 106.354 363.707 106.382 363.739 106.399C364.128 105.925 364.548 105.526 364.814 105.041C364.958 104.778 364.966 104.275 364.802 104.052C364.641 103.832 364.185 103.766 363.856 103.761C363.735 103.76 363.607 104.122 363.483 104.319C363.663 104.385 363.837 104.472 364.022 104.512C364.21 104.553 364.409 104.548 364.604 104.563L364.603 104.565ZM360.933 111.664C361.083 111.274 361.217 110.924 361.366 110.539C361.055 110.361 360.77 110.197 360.441 110.008C360.239 110.411 360.073 110.742 359.884 111.118C360.256 111.31 360.57 111.474 360.933 111.663V111.664Z" fill="white"/>
<path d="M384.183 84.7528C384.528 84.5874 384.873 84.4234 385.258 84.2386C385.387 84.4673 385.5 84.6662 385.63 84.8975C385.404 85.0551 385.199 85.1984 384.955 85.3677C385.084 85.6751 385.212 85.9825 385.354 86.3197C384.722 86.6866 384.11 87.0418 383.457 87.4203C383.809 87.8737 384.071 87.866 384.354 87.5934C384.447 87.5043 384.534 87.4087 384.625 87.3169C385.23 86.7137 385.684 86.622 386.126 87.0134C386.7 87.521 386.755 88.2393 386.268 88.8477C386.204 88.9278 386.133 89.0014 385.992 89.1603H386.993C387.01 89.9199 386.904 90 386.279 89.9741C385.607 89.9457 384.931 89.987 384.258 89.9948C383.915 89.9987 383.494 90.0503 383.452 89.5776C383.41 89.0944 383.762 89.0053 384.185 89.0066C385.409 89.0079 385.81 88.6242 385.594 87.5637C385.363 87.7084 385.143 87.8078 384.971 87.9615C384.411 88.4615 383.474 88.5648 382.834 88.1734C382.306 87.8517 382.363 87.0638 382.959 86.6827C383.341 86.4385 383.748 86.2344 384.143 86.0123C384.099 85.936 384.056 85.8598 384.012 85.7836C382.999 86.3442 381.986 86.9049 380.923 87.4939C381.655 88.6681 382.325 89.739 383.032 90.8732C382.778 91.0411 382.556 91.1884 382.296 91.3602C382.127 91.1406 381.978 90.9468 381.83 90.7518C380.431 91.7878 379.636 91.8472 379.059 90.9714C378.469 90.0775 378.824 89.2378 380.107 88.5506C380.247 88.6526 380.399 88.7637 380.551 88.8748C380.578 88.858 380.605 88.8412 380.632 88.8257C380.499 88.6036 380.365 88.3801 380.183 88.0765C379.142 88.796 378.146 89.4845 377.079 90.2222C377.457 90.7621 377.783 91.2052 378.088 91.6625C378.491 92.267 378.869 92.8884 379.279 93.4891C379.347 93.5898 379.507 93.6428 379.636 93.6854C380.649 94.0226 380.892 94.9035 380.165 95.6877C379.403 96.5079 378.414 96.8335 377.328 96.8825C376.634 96.9136 376.951 96.393 376.86 96.0016C377.342 96.0016 377.797 96.0946 378.186 95.9757C378.595 95.8504 378.965 95.5481 379.304 95.2652C379.417 95.1722 379.381 94.901 379.412 94.7111C379.205 94.7227 378.921 94.6542 378.804 94.7627C378.47 95.0766 378.169 95.2756 377.672 94.8906C377.914 94.5509 378.157 94.2112 378.451 93.8017C378.148 93.3702 377.821 92.9026 377.464 92.391C377.083 92.683 376.732 92.9517 376.391 93.2139C376.567 93.5239 376.722 93.7965 376.912 94.1311C376.132 94.3662 375.481 94.1104 374.849 93.896C374.768 93.8688 374.837 93.3909 374.837 93.1222C374.91 93.1157 374.983 93.1093 375.056 93.1028C374.877 92.8651 374.698 92.6287 374.478 92.3355C374.135 92.5822 373.812 92.8122 373.458 93.0654C373.299 92.8548 373.159 92.6701 372.986 92.4401C373.98 91.6418 374.933 90.8177 375.946 90.0736C377.674 88.8038 379.419 87.5533 381.198 86.3559C382.03 85.7965 382.956 85.378 383.84 84.8962C383.954 84.8471 384.068 84.798 384.182 84.7489L384.183 84.7528ZM375.206 91.7671C375.459 92.0733 375.655 92.3084 375.867 92.5641C376.274 92.2515 376.623 91.9828 376.984 91.7025C376.77 91.4119 376.588 91.1639 376.376 90.8771C375.963 91.191 375.614 91.4558 375.204 91.7658L375.206 91.7671ZM379.762 90.288C380.275 90.9688 380.574 90.9598 381.18 90.288H379.762Z" fill="white"/>
<path d="M471.178 156.796C471.207 156.892 471.221 156.913 471.216 156.929C470.985 157.777 470.436 158.168 469.569 158.102C468.969 158.057 468.371 158.007 467.772 157.963C467.716 157.959 467.658 157.991 467.468 158.043C468.234 158.521 468.887 158.996 469.6 159.35C470.199 159.647 470.31 159.997 470.02 160.555C469.932 160.723 469.881 160.911 469.791 161.153C468.334 160.664 466.9 160.181 465.389 159.673C465.48 159.369 465.563 159.098 465.665 158.758C466.699 159.101 467.684 159.429 468.67 159.756C468.687 159.726 468.702 159.696 468.719 159.665C467.806 159.103 466.894 158.54 465.993 157.986C466.151 157 466.155 156.989 467.055 157.086C467.842 157.17 468.626 157.274 469.445 157.238C468.486 156.91 467.528 156.583 466.527 156.241C466.622 155.936 466.704 155.676 466.811 155.334C468.315 155.838 469.769 156.326 471.181 156.799L471.178 156.796Z" fill="white"/>
<path d="M468.725 145.817C470.288 145.994 471.81 146.165 473.39 146.343C473.299 147.157 473.249 147.904 473.126 148.639C472.899 150 471.935 150.34 470.842 149.436C470.341 149.912 469.76 150.005 469.149 149.655C468.486 149.276 468.424 148.649 468.502 147.97C468.58 147.291 468.642 146.611 468.724 145.816L468.725 145.817ZM469.461 146.926C469.411 147.436 469.301 147.848 469.361 148.233C469.394 148.448 469.685 148.72 469.906 148.774C470.051 148.809 470.381 148.533 470.448 148.335C470.58 147.942 470.585 147.508 470.651 147.03C470.231 146.994 469.881 146.963 469.463 146.927L469.461 146.926ZM471.465 147.121C471.425 147.594 471.346 148.019 471.377 148.435C471.39 148.609 471.624 148.876 471.784 148.897C471.926 148.916 472.204 148.681 472.25 148.51C472.362 148.11 472.372 147.683 472.429 147.222C472.073 147.184 471.805 147.156 471.465 147.12V147.121Z" fill="white"/>
<path d="M465.919 164.584C465.269 164.814 464.654 164.772 464.19 164.188C463.742 163.625 463.871 163.025 464.139 162.431C464.419 161.81 464.701 161.188 465.029 160.465C466.447 161.111 467.838 161.745 469.329 162.423C468.913 163.277 468.584 164.136 468.099 164.897C467.55 165.757 466.658 165.602 465.919 164.583V164.584ZM465.401 161.717C465.202 162.178 464.967 162.573 464.874 162.999C464.831 163.192 465.015 163.53 465.195 163.645C465.329 163.729 465.724 163.63 465.827 163.485C466.093 163.113 466.261 162.671 466.487 162.22C466.102 162.041 465.795 161.899 465.401 161.717ZM467.242 162.567C467.053 163.002 466.844 163.358 466.759 163.742C466.716 163.931 466.903 164.171 466.987 164.388C467.177 164.303 467.446 164.269 467.541 164.122C467.766 163.776 467.91 163.375 468.102 162.962C467.792 162.818 467.563 162.714 467.243 162.567H467.242Z" fill="white"/>
<path d="M471.72 136.736C471.755 137.416 471.784 138.027 471.819 138.695C470.958 138.754 470.157 138.81 469.188 138.876C469.335 138.493 469.431 138.243 469.556 137.918C468.924 137.037 468.831 136.028 469.385 135.261C469.984 134.431 471.376 134.077 472.499 134.469C473.488 134.815 473.991 135.618 473.956 136.792C473.927 137.717 473.469 138.312 472.564 138.573C472.443 138.121 472.294 137.741 472.793 137.331C473.421 136.814 473.106 135.689 472.256 135.496C471.708 135.374 471.062 135.457 470.516 135.627C469.951 135.801 469.849 136.366 469.941 136.921C470.024 137.425 470.332 137.697 470.885 137.768C470.906 137.443 470.925 137.148 470.948 136.778C471.182 136.766 471.421 136.753 471.722 136.738L471.72 136.736Z" fill="white"/>
<path d="M409.296 80.0197C409.345 80.9704 409.394 81.9212 409.446 82.9313H408.504C408.415 81.4122 408.326 79.9008 408.235 78.3714C408.939 78.166 409.42 78.2926 409.776 78.9695C410.151 79.6773 410.639 80.3245 411.177 81.1487V78.1866C411.442 78.1686 411.73 78.1479 412.075 78.1246C412.161 79.7071 412.244 81.2326 412.325 82.7246C411.635 82.9933 411.24 82.8267 410.913 82.2596C410.461 81.4716 409.924 80.7327 409.424 79.9732L409.296 80.021V80.0197Z" fill="white"/>
<path d="M393.125 83.3033C393.427 84.2359 393.731 85.1673 394.05 86.1529C393.751 86.2563 393.478 86.3519 393.152 86.4656C392.655 84.9632 392.173 83.5022 391.692 82.0503C392.287 81.6666 392.758 81.6369 393.263 82.1626C393.872 82.7943 394.563 83.3472 395.371 84.0732C395.017 82.9765 394.723 82.0619 394.412 81.0969C394.698 80.9962 394.955 80.9045 395.302 80.7817C395.795 82.2557 396.283 83.7102 396.779 85.1906C396.246 85.5406 395.804 85.6311 395.3 85.1182C394.645 84.453 393.914 83.8613 393.215 83.2387C393.184 83.2607 393.155 83.2813 393.124 83.3033H393.125Z" fill="white"/>
<path d="M469.885 117.523C469.984 117.836 470.067 118.095 470.171 118.423C468.736 118.986 467.327 119.54 465.92 120.093C465.473 119.569 465.44 119.133 465.883 118.632C466.492 117.942 467.044 117.202 467.548 116.364C466.658 116.71 465.766 117.057 464.875 117.404C464.326 116.675 464.352 116.582 465.172 116.258C466.35 115.793 467.527 115.325 468.7 114.861C469.275 115.608 469.277 115.722 468.732 116.4C468.182 117.086 467.632 117.772 467.136 118.564C468.032 118.224 468.929 117.885 469.885 117.524V117.523Z" fill="white"/>
<path d="M420.626 83.1754C419.913 83.3808 419.508 83.1754 419.247 82.5049C418.915 81.6511 418.479 80.8373 417.978 80.0144C417.896 81.0142 417.812 82.0141 417.724 83.0682C417.406 83.0268 417.159 82.9945 416.807 82.9493C416.922 81.4056 417.035 79.8813 417.148 78.3545C417.843 78.215 418.292 78.3441 418.553 79.0378C418.859 79.8529 419.277 80.6254 419.788 81.3966C419.871 80.473 419.952 79.5494 420.037 78.5934H420.955C420.843 80.1384 420.734 81.6627 420.625 83.1741L420.626 83.1754Z" fill="white"/>
<path d="M397.637 84.9579C397.239 83.4181 396.861 81.9506 396.463 80.407C397.219 80.2209 397.932 79.9858 398.663 79.8773C399.781 79.7107 400.554 80.2364 400.829 81.4042C400.967 81.9933 401.009 82.6714 400.854 83.2437C400.736 83.6726 400.268 84.0381 399.89 84.3508C399.677 84.5264 399.329 84.5432 399.04 84.6194C398.607 84.7318 398.171 84.8313 397.638 84.9592L397.637 84.9579ZM397.653 81.027C397.915 82.0191 398.158 82.9388 398.407 83.8857C399.045 83.6907 399.761 83.7372 399.921 82.9905C400.08 82.2529 399.973 81.5011 399.391 80.9676C398.859 80.4793 398.27 80.8358 397.651 81.027H397.653Z" fill="white"/>
<path d="M450.545 96.8024C449.332 96.7946 448.243 95.7341 448.242 94.5586C448.24 93.2642 449.599 91.8523 450.819 91.8794C452.019 91.9052 453.117 93.0058 453.101 94.1646C453.082 95.4253 451.74 96.8101 450.545 96.8024ZM452.132 93.9786C452.124 93.4063 451.547 92.856 450.946 92.8508C450.186 92.8431 449.18 93.9178 449.199 94.7174C449.214 95.282 449.821 95.8632 450.388 95.8542C451.146 95.8426 452.142 94.7704 452.132 93.9786Z" fill="white"/>
<path d="M468.711 124.432C467.467 124.439 466.49 123.396 466.507 122.08C466.524 120.811 467.76 119.792 469.292 119.784C470.514 119.779 471.431 120.774 471.439 122.116C471.447 123.434 470.279 124.425 468.712 124.431L468.711 124.432ZM468.71 123.514C469.171 123.31 469.662 123.153 470.084 122.889C470.519 122.615 470.658 122.16 470.501 121.643C470.337 121.102 469.95 120.76 469.415 120.82C468.903 120.88 468.376 121.068 467.927 121.324C467.472 121.584 467.267 122.052 467.473 122.604C467.679 123.151 468.061 123.435 468.71 123.513V123.514Z" fill="white"/>
<path d="M470.068 155.289C468.436 155.268 467.365 154.336 467.393 152.962C467.422 151.618 468.317 150.721 469.624 150.729C471.243 150.738 472.354 151.68 472.341 153.031C472.328 154.37 471.386 155.307 470.07 155.29L470.068 155.289ZM470.089 154.293C470.837 154.319 471.436 153.819 471.471 153.141C471.509 152.417 470.62 151.742 469.609 151.725C468.862 151.712 468.281 152.233 468.275 152.916C468.27 153.665 469.05 154.258 470.089 154.293Z" fill="white"/>
<path d="M470.767 133.609C469.358 133.724 468.499 132.508 468.555 131.258C468.619 129.892 469.723 129.017 471.298 129.08C472.693 129.137 473.517 130.09 473.459 131.576C473.407 132.876 472.36 133.667 470.767 133.609ZM470.975 130.116C470.822 130.16 470.484 130.226 470.169 130.351C469.624 130.565 469.373 130.988 469.443 131.574C469.509 132.136 469.856 132.479 470.391 132.566C470.74 132.623 471.118 132.609 471.466 132.537C472.271 132.371 472.677 131.829 472.582 131.138C472.493 130.494 471.953 130.104 470.975 130.116Z" fill="white"/>
<path d="M461.375 102.035C462.068 103.017 462.71 103.925 463.374 104.866C463.135 105.046 462.935 105.198 462.685 105.387C462.199 104.717 461.738 104.081 461.247 103.403C460.995 103.572 460.771 103.722 460.5 103.904C460.934 104.527 461.344 105.117 461.782 105.745C461.536 105.934 461.337 106.086 461.089 106.276C460.81 105.882 460.554 105.517 460.296 105.155C459.903 104.604 459.432 104.599 458.885 105.141C459.34 105.789 459.804 106.448 460.31 107.169C460.089 107.339 459.884 107.498 459.619 107.704C458.916 106.712 458.252 105.775 457.546 104.776C458.823 103.862 460.074 102.968 461.376 102.035H461.375Z" fill="white"/>
<path d="M466.639 110.206C466.797 110.533 466.923 110.798 467.074 111.111C466.555 111.384 466.069 111.638 465.536 111.919C465.796 112.438 466.041 112.926 466.31 113.464C466.821 113.218 467.299 112.99 467.856 112.724C468.011 113.021 468.159 113.305 468.327 113.627C466.906 114.333 465.55 115.006 464.13 115.711C463.975 115.388 463.842 115.112 463.694 114.802C464.316 114.483 464.886 114.191 465.522 113.864C465.27 113.349 465.028 112.858 464.761 112.311C464.133 112.607 463.54 112.886 462.881 113.195C462.738 112.897 462.605 112.62 462.443 112.283C463.844 111.589 465.201 110.916 466.638 110.205L466.639 110.206Z" fill="white"/>
<path d="M446.419 91.4376C445.951 91.1392 445.531 90.917 445.166 90.6251C444.68 90.2376 444.339 90.266 444.096 90.8628C444.056 90.961 443.998 91.0527 443.922 91.1948C444.621 91.6469 445.317 92.099 446.044 92.5705C445.893 92.8211 445.761 93.0368 445.595 93.312C444.582 92.6661 443.596 92.037 442.569 91.3821C443.015 90.6832 443.426 90.0373 443.838 89.3915C444.242 88.7598 444.647 88.1281 445.104 87.415C446.079 88.0377 447.026 88.6422 448.019 89.2765C447.863 89.5245 447.733 89.7312 447.562 90.0025C446.868 89.5749 446.203 89.1654 445.484 88.7223C445.318 88.9729 445.171 89.1964 444.993 89.4664C445.632 89.8823 446.237 90.275 446.881 90.6936C446.728 90.939 446.596 91.1496 446.418 91.435L446.419 91.4376Z" fill="white"/>
<path d="M421.557 82.0375C422.026 82.0388 422.413 82.0078 422.582 82.5826C422.709 83.0128 423.573 83.244 423.988 83.0515C424.392 82.8642 424.436 82.4457 424.041 82.2106C423.655 81.9819 423.226 81.8282 422.823 81.6267C422.048 81.2391 421.774 80.7263 421.952 80.0313C422.123 79.3661 422.668 78.9902 423.463 78.9876C424.775 78.9824 425.502 79.6102 425.511 80.7909C425.072 80.8142 424.679 80.9162 424.426 80.3207C424.317 80.0675 423.815 79.9306 423.467 79.8544C423.32 79.8221 423.011 80.0481 422.958 80.2148C422.916 80.3504 423.103 80.6423 423.265 80.7405C423.686 80.9937 424.16 81.1565 424.59 81.3967C425.276 81.7791 425.427 82.1408 425.277 82.8939C425.166 83.4545 424.684 83.9028 424.031 83.9131C423.525 83.9222 422.993 83.8666 422.517 83.7077C421.761 83.4545 421.493 82.9288 421.556 82.0413L421.557 82.0375Z" fill="white"/>
<path d="M436.817 83.0993C437.481 83.3258 437.687 83.7271 437.435 84.3032C437.148 84.9517 436.838 85.5886 436.564 86.2422C436.315 86.8351 436.466 87.2575 436.981 87.4526C437.519 87.6567 437.875 87.4771 438.109 86.9398C438.486 86.0743 438.905 85.2269 439.309 84.373C439.326 84.3368 439.363 84.3084 439.436 84.2283C439.689 84.3498 439.951 84.4763 440.337 84.6611C439.791 85.7694 439.323 86.8946 438.701 87.9254C438.256 88.6617 437.384 88.672 436.381 88.1411C435.529 87.6903 435.164 87.0005 435.473 86.1918C435.871 85.1532 436.358 84.1482 436.819 83.098L436.817 83.0993Z" fill="white"/>
<path d="M403.585 83.5398C403.947 81.9794 404.28 80.4615 404.674 78.9592C404.714 78.8068 405.113 78.684 405.355 78.6685C405.565 78.6543 405.908 78.7473 405.985 78.8985C406.676 80.2484 407.322 81.6215 408.004 83.0347C407.391 83.1807 406.836 83.3848 406.622 82.5426C406.596 82.4418 406.362 82.332 406.228 82.3346C405.844 82.3424 405.458 82.3876 405.081 82.4599C404.972 82.4806 404.812 82.6408 404.81 82.7415C404.785 83.5527 404.241 83.5489 403.586 83.5411L403.585 83.5398ZM405.493 80.0159C405.448 80.0159 405.404 80.0159 405.359 80.0159C405.257 80.5106 405.156 81.0041 405.04 81.5712C405.426 81.535 405.728 81.5079 406.126 81.4704C405.888 80.9253 405.691 80.4706 405.493 80.0159Z" fill="white"/>
<path d="M461.284 168.219C461.446 167.565 461.623 167.083 462.38 167.313C462.496 167.348 462.734 167.214 462.816 167.093C463.004 166.81 463.157 166.495 463.272 166.175C463.323 166.03 463.313 165.756 463.22 165.684C462.633 165.226 462.803 164.783 463.217 164.283C463.821 164.882 464.425 165.473 465.022 166.073C465.416 166.468 465.801 166.871 466.186 167.275C466.686 167.8 466.7 168.108 466.231 168.656C466.163 168.736 466.018 168.81 465.92 168.798C464.392 168.616 462.866 168.421 461.282 168.221L461.284 168.219ZM463.601 167.504C464.169 167.597 464.682 167.68 465.123 167.752C464.807 167.366 464.475 166.959 464.096 166.492C463.905 166.884 463.765 167.168 463.601 167.505V167.504Z" fill="white"/>
<path d="M464.786 110.004C464.465 109.634 464.158 109.375 464.469 108.818C464.789 108.245 464.216 107.492 463.529 107.463C462.866 107.436 461.87 108.083 461.617 108.706C461.356 109.347 461.812 110.118 462.5 110.08C463.113 110.047 463.275 110.37 463.39 110.835C462.604 111.243 461.902 111.133 461.277 110.52C460.585 109.84 460.382 108.893 460.76 108.109C461.227 107.144 462.493 106.401 463.56 106.466C464.373 106.516 465.071 107.106 465.366 107.994C465.621 108.765 465.435 109.463 464.784 110.003L464.786 110.004Z" fill="white"/>
<path d="M455.006 98.8977C454.455 98.3784 453.993 97.9405 453.452 97.4289C453.015 97.9314 452.611 98.3952 452.174 98.8977C451.872 98.6161 451.643 98.4042 451.389 98.1678C452.485 97.0156 453.545 95.9021 454.636 94.7537C455.454 95.5261 456.232 96.2586 457.058 97.0401C456.875 97.2571 456.703 97.4599 456.491 97.7092C455.915 97.1693 455.374 96.6616 454.783 96.1087C454.552 96.3542 454.342 96.5776 454.113 96.8218C454.595 97.3217 455.038 97.7803 455.575 98.337C455.396 98.5127 455.206 98.7 455.003 98.899L455.006 98.8977Z" fill="white"/>
<path d="M460.596 168.98C461.888 170.405 463.668 169.905 465.255 170.205C464.812 171.207 464.773 171.227 463.823 171.091C463.465 171.039 463.106 171.008 462.594 170.952C462.856 171.388 463.049 171.724 463.256 172.052C463.591 172.583 463.521 173.119 463.045 173.662C462.63 172.925 462.265 172.181 461.808 171.501C461.521 171.073 461.141 170.67 460.719 170.381C459.936 169.845 459.906 169.859 460.596 168.98Z" fill="white"/>
<path d="M473.778 139.494C473.852 140.233 473.587 140.736 472.983 141.003C472.631 141.158 472.282 141.32 471.827 141.526C472.299 141.765 472.691 141.963 473.082 142.159C473.866 142.552 473.871 142.562 473.669 143.574C472.162 142.936 470.935 141.565 469.096 141.98V140.874C470.955 141.419 472.242 140.083 473.778 139.494Z" fill="white"/>
<path d="M444.487 87.0042C444.338 87.2729 444.216 87.4938 444.07 87.756C443.66 87.5261 443.279 87.3117 442.854 87.0727C442.202 88.1694 441.57 89.2325 440.915 90.3344C440.63 90.1743 440.377 90.0322 440.038 89.8436C440.681 88.7313 441.308 87.6462 441.949 86.5379C441.566 86.2989 441.208 86.0754 440.791 85.8158C440.941 85.5574 441.073 85.3288 441.227 85.0614C442.334 85.7202 443.397 86.3545 444.487 87.0029V87.0042Z" fill="white"/>
<path d="M427.585 80.8528C427.123 80.7198 426.716 80.6035 426.266 80.473C426.326 80.203 426.379 79.9615 426.449 79.6476C427.701 79.9499 428.9 80.2392 430.164 80.5441C430.083 80.8438 430.014 81.0982 429.941 81.3721C429.473 81.2778 429.061 81.1951 428.6 81.1034C428.291 82.3474 427.994 83.5449 427.685 84.7901C427.357 84.7113 427.073 84.6429 426.713 84.5563C427.005 83.3175 427.287 82.1175 427.586 80.8515L427.585 80.8528Z" fill="white"/>
<path d="M455.587 102.515C456.578 101.666 457.519 100.858 458.49 100.028C458.201 99.67 457.937 99.3406 457.612 98.9363C457.805 98.7568 457.984 98.5875 458.238 98.3499C459.09 99.3536 459.9 100.307 460.751 101.307C460.503 101.511 460.311 101.668 460.085 101.853C459.781 101.51 459.501 101.192 459.174 100.824C458.216 101.631 457.27 102.428 456.27 103.272C456.052 103.029 455.843 102.797 455.588 102.515H455.587Z" fill="white"/>
<path d="M436.001 82.5914C435.904 82.8885 435.832 83.1081 435.739 83.3936C435.285 83.2645 434.864 83.1443 434.402 83.0126C433.999 84.1997 433.601 85.3675 433.185 86.5934C432.863 86.4926 432.568 86.3983 432.217 86.2885C432.621 85.0691 433.008 83.8974 433.415 82.6689C432.977 82.5088 432.568 82.3576 432.139 82.2013C432.203 81.9365 432.256 81.7143 432.339 81.3733C433.556 81.7776 434.74 82.1716 436.001 82.5914Z" fill="white"/>
<path d="M472.107 124.701C472.187 125.084 472.242 125.349 472.312 125.679C471.097 125.982 469.918 126.275 468.676 126.585C468.831 127.34 468.981 128.063 469.137 128.828C468.849 128.903 468.628 128.961 468.314 129.042C468.056 127.965 467.805 126.917 467.535 125.79C469.074 125.423 470.546 125.073 472.105 124.701H472.107Z" fill="white"/>
<path d="M416.002 82.8949C415.613 82.8743 415.324 82.8601 415.05 82.8459V78.2303H416.002V82.8949Z" fill="white"/>
<path d="M401.301 79.2705C401.669 79.202 401.941 79.1516 402.297 79.0845C402.546 80.6346 402.793 82.1641 403.048 83.7504C402.652 83.7943 402.384 83.8227 402.05 83.8602C401.798 82.3217 401.554 80.8284 401.3 79.2705H401.301Z" fill="white"/>
<path d="M430.457 85.5757C430.098 85.4891 429.833 85.4246 429.468 85.3367C429.891 83.8072 430.3 82.3308 430.729 80.7832C431.05 80.8749 431.327 80.955 431.704 81.0635C431.29 82.562 430.882 84.0359 430.457 85.577V85.5757Z" fill="white"/>
<path d="M389.802 82.748C390.174 82.6188 390.45 82.5219 390.774 82.4095C391.32 83.8848 391.845 85.3096 392.392 86.7874C392.086 86.914 391.816 87.0264 391.458 87.1762C390.908 85.7036 390.369 84.2645 389.803 82.748H389.802Z" fill="white"/>
<path d="M384.183 84.7526C384.069 84.8017 383.954 84.8508 383.84 84.8999C383.281 84.8637 382.851 84.6183 382.609 84.1041C382.293 83.4311 382.82 82.6276 383.56 82.6728C383.72 82.6832 383.869 82.8653 384.099 83.0203C383.882 83.1508 383.76 83.1947 383.676 83.2787C383.524 83.4337 383.255 83.6404 383.285 83.7709C383.337 84.0021 383.56 84.2062 383.737 84.3974C383.864 84.5356 384.033 84.6351 384.183 84.7513V84.7526Z" fill="white"/>
<path d="M374.773 89.0246C375.02 88.8372 375.232 88.6771 375.49 88.4807C375.634 88.6796 375.749 88.8411 375.906 89.0594C375.652 89.2325 375.435 89.3798 375.179 89.5542C375.043 89.3759 374.923 89.2196 374.773 89.0233V89.0246Z" fill="white"/>
<path d="M358.901 108.959C358.684 108.799 358.533 108.689 358.391 108.585C358.723 107.775 358.788 107.748 359.359 108.227C359.224 108.444 359.084 108.667 358.901 108.961V108.959Z" fill="white"/>
<path d="M418.584 153.797C417.757 154.016 417.049 154.237 416.326 154.378C416.104 154.421 415.84 154.246 415.595 154.171C415.601 154.056 415.609 153.941 415.615 153.825C416.562 153.593 417.509 153.36 418.54 153.107C418.562 153.462 418.575 153.664 418.583 153.795L418.584 153.797Z" fill="white"/>
<path d="M429.985 155.289C429.147 155.192 428.35 155.099 427.492 155C427.54 154.749 427.574 154.572 427.612 154.376C428.35 154.425 429.054 154.436 429.746 154.531C430.241 154.598 430.041 154.963 429.985 155.289Z" fill="white"/>
<path d="M424.132 157.925C424.198 157.644 424.244 157.44 424.309 157.163C424.984 157.264 425.632 157.362 426.336 157.467C426.311 157.735 426.292 157.959 426.265 158.259C425.536 158.145 424.868 158.039 424.133 157.924L424.132 157.925Z" fill="white"/>
<path d="M429.182 157.786V158.573C428.47 158.498 427.803 158.428 427.076 158.35C427.143 158.06 427.194 157.841 427.252 157.589C427.89 157.654 428.5 157.716 429.182 157.786Z" fill="white"/>
<path d="M430.079 158.775C430.148 158.434 430.189 158.232 430.241 157.977C430.884 158.043 431.509 158.106 432.183 158.176V158.933C431.494 158.881 430.83 158.832 430.079 158.777V158.775Z" fill="white"/>
<path d="M431.376 156.147C431.435 156.268 431.527 156.454 431.697 156.799H429.32C429.428 156.511 429.505 156.303 429.563 156.147H431.376Z" fill="white"/>
<path d="M418.171 156.67C418.233 157.056 418.27 157.276 418.326 157.628C417.593 157.357 416.939 158.625 416.196 157.402C416.851 157.159 417.47 156.929 418.17 156.67H418.171Z" fill="white"/>
<path d="M418.741 155.634C418.688 155.406 418.645 155.225 418.579 154.948H420.58C420.669 155.43 420.546 155.684 420.004 155.64C419.603 155.608 419.198 155.634 418.741 155.634Z" fill="white"/>
<path d="M428.365 156.82C427.751 156.742 427.145 156.667 426.49 156.584C426.526 156.326 426.554 156.144 426.582 155.936C426.789 155.936 426.977 155.923 427.162 155.939C427.438 155.962 427.714 156.026 427.99 156.037C428.552 156.06 428.557 156.351 428.365 156.82Z" fill="white"/>
<path d="M423.28 157.729C422.684 157.613 422.209 157.52 421.686 157.418C421.728 157.172 421.766 156.953 421.816 156.659C422.382 156.755 422.915 156.845 423.517 156.947C423.427 157.243 423.358 157.473 423.28 157.73V157.729Z" fill="white"/>
<path d="M426.355 154.841C425.762 154.793 425.215 154.749 424.604 154.7C424.637 154.438 424.663 154.24 424.694 154.001C425.193 154.05 425.634 154.094 426.075 154.138C426.54 154.184 426.594 154.421 426.355 154.839V154.841Z" fill="white"/>
<path d="M417.253 152.219C416.717 152.422 416.205 152.616 415.653 152.825C415.529 152.673 415.401 152.515 415.202 152.27C415.742 152.063 416.207 151.877 416.677 151.707C417.105 151.552 417.269 151.751 417.253 152.219Z" fill="white"/>
<path d="M423.75 156.166C423.977 155.374 423.985 155.373 425.516 155.78V156.457C424.918 156.358 424.361 156.267 423.75 156.166Z" fill="white"/>
<path d="M419.311 157.292C419.275 157.082 419.24 156.88 419.193 156.603H420.88C420.868 156.813 420.855 157.033 420.839 157.292H419.311Z" fill="white"/>
<path d="M421.88 152.712C421.397 152.146 420.455 152.691 420.19 151.584C420.922 151.699 421.513 151.792 422.166 151.894C422.064 152.187 422.002 152.362 421.88 152.712Z" fill="white"/>
<path d="M415.958 155.703C416.486 155.495 416.977 155.303 417.504 155.096C417.623 155.324 417.719 155.507 417.813 155.687C416.752 156.389 416.379 156.409 415.958 155.703Z" fill="white"/>
<path d="M421.427 155.7C421.48 155.462 421.524 155.263 421.584 154.993C422.117 155.104 422.622 155.209 423.176 155.324C423.092 155.586 423.029 155.781 422.952 156.016C422.441 155.91 421.954 155.809 421.427 155.701V155.7Z" fill="white"/>
<path d="M422.018 154.17C422.207 153.479 422.228 153.476 423.685 153.891C423.741 154.641 423.468 154.691 422.018 154.17Z" fill="white"/>
<path d="M419.664 153.188C420.223 153.28 420.739 153.365 421.298 153.458C421.221 153.699 421.165 153.872 421.112 154.036C419.601 153.988 419.553 153.964 419.664 153.19V153.188Z" fill="white"/>
<path d="M425.061 152.49C425.578 152.555 426.057 152.616 426.562 152.681V153.259C425.398 153.411 424.96 153.21 425.061 152.49Z" fill="white"/>
<path d="M428.888 153.581C428.465 153.542 428.055 153.506 427.639 153.469C427.523 152.648 428.055 152.882 428.465 152.869C428.99 152.854 429.007 153.12 428.888 153.581Z" fill="white"/>
<path d="M419.368 151.552V152.112C418.102 152.271 418.085 152.264 417.983 151.552H419.368Z" fill="white"/>
<path d="M422.818 152.11C423.291 152.199 423.661 152.269 424.078 152.348C424.044 152.558 424.017 152.735 423.98 152.971C423.555 152.915 423.162 152.862 422.698 152.8C422.738 152.574 422.771 152.381 422.818 152.111V152.11Z" fill="white"/>
<path d="M410.263 154.02C410.054 154.689 409.797 154.74 409.331 154.56C408.68 154.31 407.983 154.174 407.247 153.972C407.158 153.625 407.234 153.347 407.735 153.448C408.565 153.616 409.387 153.819 410.263 154.019V154.02Z" fill="white"/>
<path d="M398.282 154.258V154.954H395.648C395.466 154.363 395.683 154.206 396.238 154.246C396.896 154.295 397.56 154.258 398.283 154.258H398.282Z" fill="white"/>
<path d="M395.408 157.894C395.431 158.116 395.453 158.322 395.482 158.588H392.976C392.967 158.381 392.956 158.162 392.943 157.894H395.408Z" fill="white"/>
<path d="M396.297 157.786C397.025 157.73 397.679 157.68 398.368 157.628C398.406 157.871 398.44 158.075 398.49 158.386C397.794 158.448 397.126 158.508 396.381 158.574C396.351 158.3 396.327 158.065 396.297 157.786Z" fill="white"/>
<path d="M401.216 157.25C401.295 157.506 401.357 157.703 401.447 157.996C400.739 158.101 400.079 158.199 399.374 158.304C399.315 158.016 399.269 157.799 399.214 157.529C399.889 157.434 400.515 157.348 401.216 157.251V157.25Z" fill="white"/>
<path d="M394.301 156.099H396.22V156.789C395.665 156.789 395.113 156.827 394.569 156.777C394.04 156.728 394.25 156.36 394.301 156.099Z" fill="white"/>
<path d="M407.349 157.671C407.281 157.037 407.53 156.856 408.059 157.065C408.488 157.234 408.909 157.421 409.344 157.605C409.102 158.176 408.82 158.349 408.318 158.054C408.028 157.884 407.687 157.801 407.347 157.671H407.349Z" fill="white"/>
<path d="M399.147 156.661C398.56 156.721 397.973 156.782 397.305 156.851C397.282 156.587 397.263 156.369 397.24 156.11C397.771 156.064 398.256 155.976 398.735 156.002C398.927 156.012 399.107 156.273 399.292 156.42C399.244 156.5 399.195 156.581 399.147 156.661Z" fill="white"/>
<path d="M407.041 155.1C407.149 155.65 406.989 155.86 406.492 155.811C406.175 155.78 405.843 155.849 405.536 155.785C405.377 155.751 405.261 155.522 405.125 155.382C405.262 155.265 405.395 155.054 405.536 155.048C406.037 155.028 406.542 155.077 407.041 155.1Z" fill="white"/>
<path d="M403.923 157.551C403.35 157.648 402.872 157.729 402.402 157.809C402.032 157.131 402.061 157.064 402.763 156.928C402.971 156.888 403.181 156.848 403.391 156.822C403.515 156.807 403.642 156.82 403.807 156.82C403.846 157.062 403.881 157.282 403.922 157.551H403.923Z" fill="white"/>
<path d="M401.18 154.08V154.768C400.591 154.819 400.012 154.869 399.391 154.922V154.259C399.978 154.2 400.544 154.144 401.18 154.08Z" fill="white"/>
<path d="M410.633 152.4C410.379 152.848 409.698 152.851 408.591 152.408C408.667 152.234 408.778 151.902 408.813 151.909C409.402 152.041 409.981 152.216 410.633 152.402V152.4Z" fill="white"/>
<path d="M401.908 156.274C401.387 156.37 400.863 156.465 400.263 156.575C400.205 156.354 400.149 156.141 400.095 155.932C401.456 155.444 401.821 155.511 401.908 156.274Z" fill="white"/>
<path d="M408.196 155.325C408.736 155.539 409.238 155.74 409.818 155.97C409.611 156.221 409.469 156.393 409.319 156.575C408.836 156.37 408.389 156.181 407.898 155.973C407.995 155.764 408.079 155.581 408.197 155.325H408.196Z" fill="white"/>
<path d="M404.771 156.738H406.425C406.378 156.999 406.339 157.216 406.3 157.427C404.877 157.619 404.767 157.573 404.771 156.738Z" fill="white"/>
<path d="M403.82 152.103C405.602 151.639 405.728 151.676 405.646 152.385C405.133 152.496 404.598 152.612 404.015 152.739C403.947 152.514 403.887 152.32 403.82 152.103Z" fill="white"/>
<path d="M400.842 153.221C400.32 153.258 399.816 153.293 399.246 153.334C399.23 153.084 399.217 152.887 399.201 152.657C399.63 152.632 400.012 152.624 400.39 152.581C400.834 152.531 400.976 152.712 400.842 153.221Z" fill="white"/>
<path d="M403.682 153.682C403.749 153.935 403.793 154.099 403.86 154.348C403.307 154.452 402.778 154.551 402.22 154.656C402.158 154.417 402.112 154.24 402.048 153.989C402.602 153.886 403.116 153.789 403.682 153.683V153.682Z" fill="white"/>
<path d="M404.241 155.878C403.732 155.966 403.273 156.046 402.781 156.13C402.699 155.902 402.631 155.709 402.562 155.515C403.991 155.034 404.191 155.074 404.242 155.878H404.241Z" fill="white"/>
<path d="M404.575 153.57C405.149 153.496 405.631 153.435 406.179 153.364C406.207 153.588 406.233 153.783 406.263 154.023C405.736 154.097 405.259 154.164 404.745 154.236C404.691 154.026 404.644 153.849 404.573 153.57H404.575Z" fill="white"/>
<path d="M406.37 151.57C406.979 151.606 407.4 151.632 407.86 151.659V152.25C407.426 152.25 407.023 152.285 406.634 152.226C406.54 152.212 406.492 151.889 406.369 151.57H406.37Z" fill="white"/>
<path d="M401.834 152.438C402.236 152.376 402.594 152.319 403.006 152.254C403.081 152.453 403.151 152.641 403.222 152.831C402.05 153.204 401.847 153.15 401.833 152.438H401.834Z" fill="white"/>
<path d="M398.118 152.657C398.09 152.934 398.073 153.095 398.056 153.248C397.024 153.38 396.863 153.272 397.069 152.592C397.396 152.612 397.727 152.633 398.118 152.657Z" fill="white"/>
<path d="M442.284 189.335C442.014 189.286 441.745 189.237 441.397 189.175C441.033 190.622 440.674 192.044 440.311 193.487C439.223 193.053 439.65 192.249 439.801 191.482C439.341 191.388 438.912 191.301 438.455 191.207C438.35 191.413 438.258 191.597 438.127 191.855C437.507 191.473 437.35 190.844 437.039 190.274C438.142 189.958 437.665 188.987 438.056 188.292C437.481 188.165 437.031 188.065 436.515 187.949C436.211 189.459 435.915 190.924 435.612 192.431C435.085 192.045 434.617 191.698 434.984 190.892C434.148 190.983 433.312 191.088 432.867 190.284C432.547 189.708 432.365 189.056 432.094 188.365C432.569 188.309 432.852 188.313 433.109 188.233C433.308 188.172 433.474 188.007 433.655 187.888C433.472 187.681 433.328 187.364 433.102 187.29C432.619 187.131 432.093 187.099 431.484 186.998C431.238 188.485 430.996 189.947 430.751 191.425C429.934 191.045 429.889 190.963 429.978 189.983C428.919 190.349 428.109 190.04 427.557 188.898C427.444 189.879 426.803 189.861 426.22 189.881C425.44 189.908 424.754 189.433 424.498 188.761C424.257 188.13 424.479 187.676 425.023 187.343C424.382 186.271 424.417 185.735 425.142 185.36C425.722 185.06 426.525 185.339 426.78 185.931C427.012 186.472 426.799 186.755 425.874 187.131C426.461 187.356 426.775 187.711 426.817 188.197C426.455 188.179 426.091 188.101 425.754 188.163C425.532 188.205 425.347 188.447 425.146 188.599C425.345 188.73 425.556 188.987 425.741 188.969C426.218 188.923 426.734 188.839 427.13 188.597C427.316 188.484 427.263 187.975 427.333 187.556C427.538 187.521 427.854 187.488 428.159 187.406C428.323 187.362 428.604 187.219 428.595 187.153C428.565 186.94 428.462 186.709 428.316 186.55C428.217 186.443 427.995 186.395 427.835 186.406C427.158 186.459 426.955 186.051 426.855 185.385C428.152 185.575 429.408 185.758 430.805 185.962C430.258 185.036 429.996 184.063 428.844 183.785C428.628 183.734 428.521 183.233 428.35 182.917C428.982 182.613 429.427 182.799 429.691 183.216C430.184 183.99 430.616 184.803 431.023 185.626C431.182 185.949 431.341 186.09 431.713 186.16C434.517 186.691 437.317 187.253 440.112 187.829C440.677 187.945 441.25 188.099 441.763 188.352C442.061 188.499 442.246 188.878 442.483 189.152L442.285 189.331L442.284 189.335ZM435.544 187.76C435.019 187.639 434.574 187.536 434.08 187.421C434.403 188.333 434.157 188.924 433.341 189.195C433.063 189.288 432.807 189.526 433.13 189.726C433.44 189.918 433.901 189.998 434.263 189.934C434.612 189.872 435.061 189.64 435.209 189.35C435.432 188.914 435.431 188.364 435.544 187.76ZM429.1 186.598C429.211 187.064 429.416 187.48 429.38 187.874C429.324 188.482 428.713 188.24 428.345 188.376C428.051 188.486 427.909 188.668 428.159 188.951C428.522 189.361 430.063 189.113 430.209 188.592C430.362 188.047 430.406 187.471 430.505 186.857C429.973 186.76 429.525 186.678 429.1 186.6V186.598ZM440.451 188.923C439.945 188.761 439.488 188.614 438.96 188.445C438.825 189.114 438.705 189.711 438.576 190.359C439.112 190.47 439.561 190.562 440.036 190.66C440.183 190.045 440.311 189.509 440.452 188.923H440.451ZM425.832 185.651C425.63 185.917 425.4 186.099 425.43 186.209C425.476 186.377 425.691 186.581 425.857 186.605C425.977 186.622 426.253 186.366 426.249 186.24C426.244 186.073 426.03 185.913 425.83 185.65L425.832 185.651Z" fill="white"/>
<path d="M386.637 190.067C386.183 190.169 385.775 190.261 385.31 190.366C386.761 191.455 386.798 191.776 385.588 192.979C385.974 193.285 386.359 193.591 386.745 193.896C386.705 193.979 386.665 194.061 386.626 194.144C386.418 194.099 386.16 194.114 386.01 193.996C385.527 193.613 385.13 193.152 384.442 193.058C383.995 192.997 383.867 192.59 384.051 192.146C384.252 191.657 384.525 191.79 384.864 192.008C384.974 192.077 385.305 192.026 385.34 191.944C385.421 191.757 385.478 191.433 385.375 191.316C385.141 191.055 384.82 190.853 384.503 190.69C384.203 190.536 383.861 190.464 383.378 190.302C384.288 189.448 385.456 189.636 386.422 189.16C386.38 188.977 386.334 188.779 386.269 188.49C385.38 188.706 384.53 188.906 383.685 189.118C382.94 189.304 382.916 189.299 382.471 188.516C383.773 188.197 385.049 187.831 386.347 187.578C390.351 186.795 394.364 186.069 398.367 185.285C399.014 185.159 399.335 185.381 399.57 185.966C399.286 186.027 399.02 186.082 398.64 186.162C398.839 187.668 399.04 189.189 399.244 190.73C400.078 191.125 400.88 191.601 401.425 192.389C401.387 192.448 401.349 192.507 401.311 192.567C401.127 192.461 400.933 192.369 400.76 192.248C400.151 191.82 399.532 191.504 398.733 191.573C398.481 191.595 398.197 191.24 397.927 191.057C397.95 190.988 397.972 190.92 397.995 190.851C398.273 190.782 398.549 190.712 398.827 190.642C397.977 190.443 398.219 189.667 397.999 189.058C397.606 189.098 397.21 189.14 396.799 189.181C396.74 189.436 396.688 189.655 396.594 190.061C396.023 189.628 395.536 189.259 395.023 188.87C395.996 188.17 395.223 187.415 395.329 186.63C394.768 186.751 394.299 186.853 393.783 186.964C394.032 188.458 394.275 189.91 394.519 191.375C393.176 191.34 393.477 190.253 393.19 189.455C392.855 189.5 392.512 189.548 392.15 189.597C392.132 189.877 392.116 190.106 392.098 190.379C391.406 190.376 391.057 189.886 390.677 189.483C390.645 189.449 390.865 189.031 391.024 188.983C391.657 188.795 392.313 188.682 393.034 188.525C392.965 188.078 392.901 187.645 392.824 187.148C391.668 187.352 390.56 187.548 389.401 187.752C389.712 189.253 390.011 190.696 390.322 192.199C389.634 192.12 389.227 191.903 389.118 191.186C388.962 190.149 388.698 189.128 388.463 188.017C388.077 188.091 387.713 188.161 387.239 188.251C387.575 189.752 387.9 191.201 388.236 192.701C387.542 192.609 387.084 192.416 387.013 191.676C386.962 191.151 386.777 190.638 386.639 190.062L386.637 190.067ZM397.938 188.17C397.833 187.508 397.734 186.896 397.631 186.254C397.108 186.359 396.679 186.444 396.232 186.532C396.343 187.185 396.441 187.765 396.546 188.384C397.032 188.309 397.448 188.245 397.938 188.168V188.17Z" fill="white"/>
<path d="M419.964 190.106C419.472 189.716 419.022 189.315 419.253 188.574C419.277 188.499 419.049 188.269 418.91 188.237C418.623 188.171 418.316 188.192 417.988 188.175C417.932 188.392 417.88 188.589 417.767 189.03C417.245 188.449 416.831 187.989 416.382 187.488C417.479 187.017 416.868 186.117 417.2 185.408C416.568 185.333 416.032 185.268 415.394 185.192V189.707C414.227 189.582 414.425 188.743 414.405 188.062C413.378 187.803 413.156 187.88 412.855 188.76C412.368 188.259 411.947 187.825 411.499 187.362C412.544 186.785 411.87 185.943 412.166 185.214H410.078C409.749 186.178 410.369 187.246 409.519 188.203C409.994 188.599 410.482 189.007 410.928 189.377C410.692 189.911 410.497 189.839 410.247 189.58C409.665 188.977 409.039 188.411 408.484 187.785C408.281 187.555 408.12 187.187 408.145 186.9C408.158 186.758 408.639 186.658 408.983 186.507V185.279H406.886V189.832C406.412 189.624 405.882 189.495 406.022 188.792C404.009 188.667 403.938 188.577 403.551 185.821C403.14 185.501 402.808 185.24 402.475 184.98C402.511 184.918 402.546 184.856 402.582 184.794C403.619 184.686 404.655 184.509 405.694 184.484C408.918 184.405 412.144 184.337 415.369 184.36C417.148 184.373 418.928 184.553 420.702 184.721C420.979 184.746 421.226 185.109 421.487 185.316C421.448 185.379 421.409 185.441 421.369 185.505C421.27 185.519 421.167 185.556 421.072 185.542C420.563 185.467 420.406 185.693 420.385 186.188C420.335 187.347 420.231 188.503 420.134 189.659C420.122 189.808 420.012 189.947 419.947 190.091L419.967 190.11L419.964 190.106ZM404.5 185.474C404.545 186.14 404.571 186.714 404.628 187.283C404.65 187.502 404.742 187.712 404.802 187.927C405.036 187.857 405.327 187.849 405.488 187.702C405.681 187.525 405.859 187.234 405.875 186.982C405.903 186.481 405.816 185.974 405.778 185.472H404.501L404.5 185.474ZM418.06 185.478V187.342H419.341C419.392 186.71 419.437 186.121 419.489 185.478H418.061H418.06ZM413.093 185.24C412.997 187.24 412.795 187.206 414.39 187.007V185.24H413.093Z" fill="white"/>
<path d="M419.944 190.087C421.661 191.57 421.94 191.923 421.73 192.563C421.451 192.246 421.254 191.929 420.973 191.727C420.584 191.449 420.145 191.103 419.704 191.068C419.062 191.018 418.948 190.66 418.796 190.107C419.222 190.107 419.593 190.107 419.964 190.107L419.944 190.088V190.087Z" fill="white"/>
<path d="M438.849 193.427C440.07 193.239 441.237 194.371 441.69 196.18C441.427 195.976 441.258 195.901 441.177 195.77C440.734 195.06 440.229 194.468 439.354 194.24C439.141 194.184 439.031 193.737 438.848 193.427H438.849Z" fill="white"/>
<line x1="275.5" y1="63" x2="275.5" y2="221" stroke="white"/>
</svg>
